<?xml version="1.0" encoding="UTF-8" standalone="no"?>
<!DOCTYPE svg PUBLIC "-//W3C//DTD SVG 1.1//EN" "http://www.w3.org/Graphics/SVG/1.1/DTD/svg11.dtd">
<svg xmlns="http://www.w3.org/2000/svg" version="1.1" viewBox="0.00 0.00 688.00 1504.00">
<g stroke-width="2.00" fill="none" stroke-linecap="butt">
<path stroke="#8acbe5" vector-effect="non-scaling-stroke" d="
  M 392.31 660.76
  C 398.97 670.37 398.75 681.21 392.65 691.14
  Q 386.00 701.95 373.48 706.66
  C 367.75 708.81 361.41 709.09 355.80 708.69
  A 0.57 0.57 0.0 0 0 355.19 709.26
  L 355.19 758.14
  A 0.60 0.60 0.0 0 0 355.79 758.74
  L 446.70 757.78
  A 0.89 0.88 -6.1 0 0 447.56 756.72
  C 446.32 750.81 444.77 744.18 442.57 738.04
  C 438.60 726.95 434.91 715.04 432.06 702.23
  C 430.11 693.43 427.59 684.96 423.32 677.15
  Q 415.38 662.61 403.86 651.70"
/>
<path stroke="#8ad9ee" vector-effect="non-scaling-stroke" d="
  M 403.86 651.70
  Q 396.87 644.89 393.89 642.85
  Q 380.55 633.70 368.93 623.57
  Q 366.27 621.25 364.34 618.72
  A 1.09 1.09 0.0 0 1 364.69 617.09
  C 366.76 615.98 373.05 617.18 375.67 617.86
  Q 381.74 619.46 382.92 619.65
  Q 391.03 620.91 405.74 625.76
  Q 414.61 628.68 424.96 628.94"
/>
<path stroke="#8acbe5" vector-effect="non-scaling-stroke" d="
  M 424.96 628.94
  C 448.56 629.22 465.12 617.37 480.95 600.54
  A 0.40 0.40 0.0 0 0 480.66 599.87
  L 457.35 600.11
  A 1.14 1.14 0.0 0 0 456.24 601.07
  Q 454.25 613.57 442.79 618.77
  Q 434.14 622.69 424.74 618.16"
/>
<path stroke="#8ad9ee" vector-effect="non-scaling-stroke" d="
  M 424.74 618.16
  C 410.30 608.85 412.01 590.25 425.66 581.41
  C 431.41 577.67 439.22 577.77 445.32 581.47
  Q 454.58 587.10 456.36 598.09
  A 0.32 0.32 0.0 0 0 456.97 598.17
  C 460.58 590.17 458.82 581.81 455.29 574.18
  C 446.45 555.11 419.44 551.64 405.81 566.75
  C 397.87 575.57 394.54 588.73 399.99 599.57
  A 0.46 0.46 0.0 0 1 399.58 600.24
  L 356.18 600.24
  A 0.82 0.81 -90.0 0 0 355.37 601.06
  L 355.37 644.77
  A 0.68 0.67 -87.7 0 0 355.99 645.45
  C 361.46 645.94 367.27 645.85 372.42 647.23
  Q 384.59 650.48 392.31 660.76"
/>
<path stroke="#15a5d4" vector-effect="non-scaling-stroke" d="
  M 424.74 618.16
  L 424.96 628.94"
/>
<path stroke="#15a5d4" vector-effect="non-scaling-stroke" d="
  M 403.86 651.70
  L 392.31 660.76"
/>
<path stroke="#bca4d8" vector-effect="non-scaling-stroke" d="
  M 291.32 599.21
  C 286.10 591.24 275.34 590.94 269.36 598.16
  C 265.65 602.63 266.06 610.93 269.09 615.68
  Q 276.87 627.90 289.20 635.43
  A 2.53 2.50 -44.5 0 0 291.80 635.44
  C 301.06 629.90 309.14 622.88 314.19 613.24
  Q 317.29 607.30 315.26 601.54
  C 312.52 593.77 303.23 591.33 296.35 594.66
  Q 293.29 596.13 292.16 599.12
  A 0.47 0.47 0.0 0 1 291.32 599.21"
/>
<path stroke="#8acbe5" vector-effect="non-scaling-stroke" d="
  M 499.52 684.75
  Q 498.82 640.41 499.59 601.37
  A 1.49 1.48 4.8 0 0 498.32 599.87
  Q 496.57 599.61 494.61 599.97
  A 2.13 2.12 4.5 0 0 492.98 601.35
  C 490.40 608.66 488.34 614.63 485.04 621.48
  Q 480.40 631.14 478.13 637.03
  Q 471.24 654.90 483.55 668.74
  Q 491.35 677.52 498.57 685.13
  A 0.55 0.55 0.0 0 0 499.52 684.75"
/>
<path stroke="#b19bc9" vector-effect="non-scaling-stroke" d="
  M 229.79 672.02
  Q 229.65 690.99 229.77 709.91
  Q 229.78 711.20 229.62 715.09
  C 229.04 729.39 240.62 747.19 256.28 747.41
  Q 284.28 747.79 316.76 747.58
  C 318.82 747.57 320.59 747.90 322.35 747.78
  A 0.85 0.84 2.0 0 0 323.14 747.05
  Q 323.91 741.26 321.60 737.03
  C 318.85 732.00 313.46 732.46 308.56 733.90
  C 301.36 736.01 296.79 736.98 289.59 739.39
  Q 285.22 740.85 280.65 741.43
  A 1.41 1.41 0.0 0 1 279.22 740.67
  Q 276.58 735.48 276.03 730.40
  A 0.85 0.85 0.0 0 1 277.45 729.68
  Q 280.47 732.43 280.16 737.20
  Q 280.12 737.87 280.97 738.99
  A 0.20 0.19 21.5 0 0 281.32 738.84
  L 280.78 735.69
  A 1.98 1.95 54.2 0 1 280.97 734.46
  Q 282.64 731.17 285.83 727.94
  C 290.51 723.18 292.16 720.64 297.01 715.02
  C 302.14 709.09 306.84 702.40 306.15 694.40
  C 305.88 691.32 303.62 686.40 302.21 684.07
  Q 297.41 676.17 293.01 667.95"
/>
<path stroke="#bca4d8" vector-effect="non-scaling-stroke" d="
  M 293.01 667.95
  Q 290.96 663.66 288.79 659.30
  Q 285.48 652.66 285.34 646.16
  A 0.89 0.89 0.0 0 0 284.71 645.32
  Q 277.30 643.09 271.66 637.06
  C 264.00 628.86 263.42 619.02 265.76 608.17
  A 1.52 1.52 0.0 0 0 264.24 606.33
  Q 250.49 606.58 236.77 606.55
  C 232.43 606.54 230.10 609.59 230.11 613.81
  Q 230.20 643.54 229.79 672.02"
/>
<path stroke="#6e40a1" vector-effect="non-scaling-stroke" d="
  M 293.01 667.95
  C 283.39 677.98 274.04 685.01 259.31 681.93
  C 249.19 679.81 239.41 675.81 229.79 672.02"
/>
<path stroke="#b19bc9" vector-effect="non-scaling-stroke" d="
  M 308.22 663.96
  Q 316.94 669.99 324.51 672.01
  C 333.48 674.40 344.95 672.63 354.14 668.61
  C 360.87 665.66 367.11 663.77 373.72 661.97
  A 0.67 0.67 0.0 0 1 374.57 662.68
  C 373.96 669.09 369.89 675.79 365.77 680.77
  Q 361.19 686.31 351.30 695.70
  C 345.87 700.85 343.14 703.89 341.79 710.54
  Q 338.15 728.62 336.06 746.72
  A 0.62 0.62 0.0 0 0 336.71 747.41
  Q 340.99 747.22 348.54 747.40
  Q 351.86 747.48 351.77 744.02
  Q 351.32 726.13 351.83 706.85
  A 1.22 1.22 0.0 0 1 353.05 705.66
  C 363.64 705.69 375.53 700.56 381.44 691.82
  C 389.32 680.18 387.75 666.46 378.32 656.68
  Q 374.46 652.67 367.88 650.78"
/>
<path stroke="#bca4d8" vector-effect="non-scaling-stroke" d="
  M 367.88 650.78
  Q 360.84 649.00 352.16 649.43
  A 0.42 0.42 0.0 0 1 351.72 649.01
  Q 351.58 630.09 351.82 611.06
  C 351.88 606.99 348.65 606.23 345.03 606.26
  Q 339.44 606.29 318.18 606.50
  A 1.02 1.02 0.0 0 0 317.19 607.71
  Q 318.36 613.89 318.00 620.52
  C 317.32 633.20 308.96 642.76 296.53 645.76
  Q 292.82 646.65 289.22 646.40
  A 0.55 0.55 0.0 0 0 288.81 647.35
  C 295.30 653.27 300.74 659.03 308.22 663.96"
/>
<path stroke="#6e40a1" vector-effect="non-scaling-stroke" d="
  M 367.88 650.78
  Q 364.36 657.26 360.60 659.62
  Q 356.43 662.23 351.80 663.31
  A 1.98 1.98 0.0 0 1 349.55 662.21
  L 346.14 654.79"
/>
<path stroke="#bca4d8" vector-effect="non-scaling-stroke" d="
  M 346.14 654.79
  Q 345.75 642.02 334.74 639.82
  C 324.04 637.68 316.64 647.22 319.10 657.27"
/>
<path stroke="#6e40a1" vector-effect="non-scaling-stroke" d="
  M 319.10 657.27
  L 308.22 663.96"
/>
<path stroke="#b19bc9" vector-effect="non-scaling-stroke" d="
  M 346.14 654.79
  Q 344.70 664.91 335.97 667.28
  C 327.98 669.45 321.34 664.92 319.10 657.27"
/>
<path stroke="#bca4d8" vector-effect="non-scaling-stroke" d="
  M 173.1900 691.5536
  A 0.92 0.66 -179.6 0 0 174.1054 692.2200
  A 0.92 0.66 -179.6 0 0 175.0300 691.5664
  A 0.92 0.66 -179.6 0 0 174.1146 690.9000
  A 0.92 0.66 -179.6 0 0 173.1900 691.5536"
/>
<path stroke="#bca4d8" vector-effect="non-scaling-stroke" d="
  M 178.5217 698.3232
  A 0.80 0.80 0.0 0 0 177.4980 697.8415
  L 177.4415 697.8619
  A 0.80 0.80 0.0 0 0 176.9598 698.8856
  L 178.9583 704.4368
  A 0.80 0.80 0.0 0 0 179.9820 704.9185
  L 180.0385 704.8981
  A 0.80 0.80 0.0 0 0 180.5202 703.8744
  L 178.5217 698.3232"
/>
<path stroke="#8acbe5" vector-effect="non-scaling-stroke" d="
  M 459.08 758.28
  Q 476.47 758.86 488.91 746.35
  Q 494.00 741.23 497.31 732.90
  Q 499.48 727.43 499.49 719.94
  Q 499.50 713.21 499.48 706.69
  A 1.07 1.07 0.0 0 0 498.63 705.64
  Q 484.40 702.77 472.60 701.18
  C 466.46 700.36 458.40 703.79 458.36 710.80
  Q 458.21 733.46 458.73 757.92
  A 0.36 0.36 0.0 0 0 459.08 758.28"
/>
<path stroke="#bca4d8" vector-effect="non-scaling-stroke" d="
  M 183.23 710.60
  L 187.36 716.93
  A 0.14 0.14 0.0 0 0 187.55 716.97
  L 187.58 716.95
  A 3.17 2.30 56.9 0 0 187.78 713.04
  L 186.96 711.78
  A 3.17 2.30 56.9 0 0 183.30 710.39
  L 183.27 710.41
  A 0.14 0.14 0.0 0 0 183.23 710.60"
/>
<path stroke="#bca4d8" vector-effect="non-scaling-stroke" d="
  M 348.05 757.35
  L 354.16 752.96
  A 0.12 0.12 0.0 0 0 354.19 752.79
  L 354.17 752.77
  A 2.92 1.93 -35.7 0 0 350.67 752.91
  L 349.11 754.03
  A 2.92 1.93 -35.7 0 0 347.87 757.30
  L 347.89 757.32
  A 0.12 0.12 0.0 0 0 348.05 757.35"
/>
<path stroke="#b19bc9" vector-effect="non-scaling-stroke" d="
  M 334.24 805.54
  A 3.66 3.66 0.0 0 0 339.29 805.84
  Q 343.46 802.32 347.81 798.82
  C 351.74 795.66 352.03 790.95 347.45 788.54
  Q 344.67 787.08 343.16 789.13
  Q 338.55 795.35 334.12 800.35
  A 3.80 3.80 0.0 0 0 334.18 805.46
  L 334.24 805.54"
/>
<path stroke="#8acbe5" vector-effect="non-scaling-stroke" d="
  M 427.53 850.76
  C 431.41 850.76 433.28 849.07 434.87 845.55
  Q 441.23 831.40 454.69 802.17
  Q 455.53 800.36 455.82 798.72
  C 456.96 792.32 446.98 790.00 444.32 796.04
  Q 434.96 817.20 428.16 832.64
  Q 427.83 833.39 427.53 833.39
  Q 427.23 833.39 426.90 832.64
  Q 420.09 817.20 410.73 796.04
  C 408.07 790.00 398.09 792.32 399.23 798.72
  Q 399.52 800.36 400.36 802.17
  Q 413.82 831.40 420.19 845.55
  C 421.77 849.07 423.65 850.76 427.53 850.76"
/>
<path stroke="#b19bc9" vector-effect="non-scaling-stroke" d="
  M 211.15 836.89
  C 204.29 846.94 223.37 850.44 229.03 850.79
  C 236.57 851.25 244.42 850.34 249.78 845.43
  Q 255.95 839.78 255.19 831.88
  C 254.00 819.40 238.03 818.64 229.78 815.60
  C 226.26 814.30 222.91 812.59 223.75 808.47
  C 224.73 803.66 230.37 802.36 234.79 802.68
  Q 241.09 803.15 246.39 806.56
  C 249.21 808.37 252.56 809.05 254.25 806.02
  C 256.58 801.83 252.98 798.12 249.39 796.32
  Q 241.10 792.16 231.85 792.71
  C 222.11 793.29 213.20 797.80 211.53 808.12
  C 208.89 824.44 227.44 825.83 237.36 829.39
  Q 241.01 830.70 241.83 831.95
  Q 244.46 835.90 241.27 838.34
  C 234.63 843.43 223.64 840.54 217.20 836.55
  C 215.37 835.42 212.40 835.06 211.15 836.89"
/>
<path stroke="#b19bc9" vector-effect="non-scaling-stroke" d="
  M 57.19 799.06
  L 57.19 844.48
  A 5.64 5.64 0.0 0 0 62.83 850.12
  L 82.09 850.12
  A 26.16 25.77 0.0 0 0 108.25 824.35
  L 108.25 819.19
  A 26.16 25.77 -0.0 0 0 82.09 793.42
  L 62.83 793.42
  A 5.64 5.64 0.0 0 0 57.19 799.06"
/>
<path stroke="#b19bc9" vector-effect="non-scaling-stroke" d="
  M 302.70 811.08
  C 298.25 810.60 293.78 810.59 295.39 816.85
  C 296.37 820.61 300.04 819.48 302.72 819.73
  A 0.61 0.61 0.0 0 1 303.28 820.34
  Q 303.29 823.61 303.14 841.50
  Q 303.10 846.13 303.72 847.86
  A 3.02 2.97 10.8 0 0 304.62 849.16
  Q 308.50 852.44 313.30 849.85
  A 2.09 2.06 -1.6 0 0 314.18 848.93
  Q 315.27 846.68 315.39 844.25
  Q 315.50 841.81 315.27 820.73
  A 0.59 0.59 0.0 0 1 315.86 820.13
  L 322.36 820.13
  A 3.74 3.74 0.0 0 0 326.10 816.39
  L 326.10 814.80
  A 3.96 3.96 0.0 0 0 322.14 810.84
  L 315.79 810.84
  A 0.76 0.76 0.0 0 1 315.05 809.93
  L 315.86 806.08
  A 3.44 3.43 -89.0 0 1 318.63 803.40
  L 324.95 802.32
  A 4.11 4.10 85.2 0 0 328.36 798.27
  L 328.36 796.97
  A 3.80 3.80 0.0 0 0 324.40 793.17
  C 313.09 793.63 303.63 797.50 303.21 810.63
  A 0.46 0.46 0.0 0 1 302.70 811.08"
/>
<path stroke="#8acbe5" vector-effect="non-scaling-stroke" d="
  M 475.45 845.81
  Q 476.61 850.57 480.32 850.99
  C 483.91 851.40 487.06 849.08 487.19 845.47
  Q 487.42 838.95 487.04 825.60
  Q 486.91 820.66 486.01 818.46
  C 481.51 807.42 467.69 808.78 458.53 811.53
  C 454.56 812.73 449.94 815.77 452.62 820.48
  Q 453.99 822.87 457.26 822.05
  Q 458.32 821.78 465.19 819.71
  Q 467.55 819.00 472.19 819.59
  A 3.14 3.13 88.7 0 1 474.89 822.18
  L 475.36 824.88
  A 1.60 1.60 0.0 0 1 473.67 826.74
  Q 466.86 826.24 459.61 827.93
  C 454.42 829.14 451.39 831.41 450.75 836.51
  C 449.60 845.62 458.06 851.87 466.53 851.08
  Q 472.22 850.56 474.79 845.73
  A 0.36 0.35 -37.9 0 1 475.45 845.81"
/>
<path stroke="#8acbe5" vector-effect="non-scaling-stroke" d="
  M 518.43 818.56
  C 513.11 828.56 514.80 842.84 526.44 847.52
  Q 537.21 851.84 545.10 844.27
  A 0.37 0.37 0.0 0 1 545.73 844.53
  C 546.08 858.92 533.31 856.62 523.66 853.25
  A 3.98 3.98 0.0 0 0 518.43 856.30
  L 518.40 856.47
  A 5.73 5.72 15.2 0 0 522.07 862.88
  C 530.48 865.96 542.57 867.04 550.04 862.38
  C 558.06 857.38 557.58 849.03 557.66 840.01
  Q 557.84 820.94 557.86 817.27
  C 557.88 812.31 555.24 809.22 550.20 810.03
  Q 546.84 810.58 545.66 814.36
  A 0.42 0.41 -58.5 0 1 544.97 814.53
  Q 539.22 808.71 531.23 809.72
  Q 525.07 810.49 521.58 813.96
  C 520.74 814.79 520.16 815.99 519.68 816.43
  A 0.25 0.25 0.0 0 1 519.28 816.16
  C 520.44 812.92 519.11 810.15 515.63 809.93
  Q 507.71 809.42 503.28 815.49
  A 0.26 0.25 -25.5 0 1 502.82 815.33
  C 503.18 808.14 491.10 807.50 491.06 816.57
  Q 490.98 839.80 490.96 841.50
  Q 490.91 845.45 491.28 847.00
  C 492.03 850.11 496.15 851.88 499.22 850.94
  Q 503.37 849.66 503.36 845.24
  Q 503.35 833.93 503.73 827.94
  C 504.20 820.62 510.87 820.99 515.80 819.80
  Q 516.59 819.61 518.07 818.28
  A 0.23 0.23 0.0 0 1 518.43 818.56"
/>
<path stroke="#8acbe5" vector-effect="non-scaling-stroke" d="
  M 599.84 839.43
  Q 598.83 840.48 598.90 843.25
  C 598.97 846.11 601.56 848.07 603.88 848.91
  C 612.79 852.14 628.88 852.65 632.82 841.84
  C 634.51 837.21 632.95 832.10 628.45 829.44
  C 624.11 826.87 619.93 826.53 615.31 825.43
  Q 613.39 824.97 611.61 823.49
  A 1.38 1.35 -66.9 0 1 611.14 822.28
  C 611.94 815.79 621.69 819.76 626.25 821.75
  A 4.15 4.15 0.0 0 0 631.87 819.13
  L 631.92 818.95
  A 5.49 5.48 -69.3 0 0 628.96 812.40
  C 620.01 808.27 604.84 807.63 600.44 818.46
  C 597.31 826.17 602.66 831.09 609.84 833.28
  Q 614.58 834.73 618.12 835.63
  Q 619.96 836.10 620.87 837.19
  A 2.25 2.25 0.0 0 1 620.31 840.55
  C 617.89 842.02 612.24 841.46 610.06 840.67
  Q 606.69 839.46 603.89 838.49
  A 3.93 3.80 30.9 0 0 599.84 839.43"
/>
<path stroke="#b19bc9" vector-effect="non-scaling-stroke" d="
  M 124.07 815.41
  Q 123.52 809.69 118.36 809.82
  C 114.79 809.92 112.47 812.02 112.40 815.49
  Q 112.16 826.61 112.06 843.20
  C 112.04 847.18 112.75 850.27 116.97 850.80
  C 123.68 851.65 124.30 847.43 124.33 841.70
  Q 124.37 835.81 124.33 829.96
  C 124.26 821.05 131.02 821.09 137.49 819.91
  C 138.24 819.77 138.69 818.89 139.17 818.63
  A 0.46 0.46 0.0 0 1 139.84 818.98
  Q 140.35 822.63 144.25 821.80
  C 148.74 820.85 163.82 814.34 162.49 826.09
  A 0.63 0.62 -86.9 0 1 161.87 826.65
  Q 156.20 826.66 150.50 827.48
  C 144.43 828.35 138.69 829.99 138.31 837.01
  Q 137.94 843.72 142.49 847.48
  C 148.25 852.24 157.85 853.13 162.07 845.99
  A 0.43 0.43 0.0 0 1 162.82 846.00
  Q 163.00 846.34 163.30 847.47
  C 164.09 850.40 167.45 851.35 170.28 850.73
  C 174.82 849.73 174.28 844.37 174.25 840.84
  Q 174.13 827.59 174.05 825.00
  C 173.74 815.30 168.74 810.35 159.11 809.76
  Q 150.12 809.21 141.07 813.46
  A 0.41 0.41 0.0 0 1 140.49 813.18
  C 139.17 807.06 129.89 810.70 126.88 812.88
  C 125.84 813.63 125.13 815.36 124.62 815.68
  A 0.36 0.36 0.0 0 1 124.07 815.41"
/>
<path stroke="#b19bc9" vector-effect="non-scaling-stroke" d="
  M 297.5967 828.0498
  A 18.66 18.66 0.0 0 0 278.5501 809.7847
  L 274.7509 809.8643
  A 18.66 18.66 0.0 0 0 256.4858 828.9110
  L 256.5633 832.6102
  A 18.66 18.66 0.0 0 0 275.6099 850.8753
  L 279.4091 850.7957
  A 18.66 18.66 0.0 0 0 297.6742 831.7490
  L 297.5967 828.0498"
/>
<path stroke="#b19bc9" vector-effect="non-scaling-stroke" d="
  M 370.72 846.06
  C 371.32 850.24 373.85 851.78 377.70 850.70
  Q 381.62 849.60 381.66 844.48
  Q 381.78 826.76 381.48 823.53
  C 380.55 813.66 374.01 809.84 364.74 809.73
  Q 359.40 809.66 350.69 812.36
  A 5.56 5.55 78.6 0 0 346.81 818.22
  L 346.83 818.42
  A 4.15 4.14 -10.0 0 0 351.98 822.02
  C 356.67 820.83 360.41 818.66 366.71 819.42
  A 3.52 3.51 88.4 0 1 369.75 822.31
  L 370.16 824.73
  A 1.83 1.83 0.0 0 1 368.25 826.87
  C 360.88 826.44 347.20 826.70 345.87 836.10
  C 344.69 844.37 350.43 850.32 358.36 851.17
  Q 365.94 851.99 370.00 845.90
  A 0.40 0.39 -32.4 0 1 370.72 846.06"
/>
<path stroke="#8acbe5" vector-effect="non-scaling-stroke" d="
  M 585.56 845.78
  Q 585.69 846.12 585.79 846.67
  C 586.36 849.85 588.67 851.27 592.01 851.01
  Q 596.32 850.68 596.71 846.66
  Q 597.42 839.22 596.72 824.03
  Q 596.51 819.38 594.88 816.45
  C 589.63 807.01 572.52 808.89 564.74 813.41
  Q 561.39 815.35 562.17 818.87
  C 562.76 821.53 565.03 822.56 567.52 821.76
  C 573.03 819.97 576.46 818.64 582.06 819.68
  A 3.58 3.57 0.5 0 1 584.93 822.59
  L 585.31 824.80
  A 1.74 1.73 87.4 0 1 583.47 826.82
  Q 577.77 826.38 569.81 828.06
  C 562.17 829.67 559.10 835.91 561.97 842.78
  C 565.04 850.09 576.15 854.01 582.41 848.83
  C 583.44 847.98 584.41 845.90 584.86 845.58
  A 0.46 0.46 0.0 0 1 585.56 845.78"
/>
<path stroke="#b19bc9" vector-effect="non-scaling-stroke" d="
  M 342.4031 815.3860
  A 5.46 5.46 0.0 0 0 336.8862 809.9835
  L 335.4263 809.9988
  A 5.46 5.46 0.0 0 0 330.0238 815.5156
  L 330.3369 845.4140
  A 5.46 5.46 0.0 0 0 335.8538 850.8165
  L 337.3137 850.8012
  A 5.46 5.46 0.0 0 0 342.7162 845.2844
  L 342.4031 815.3860"
/>
<path stroke="#b19bc9" vector-effect="non-scaling-stroke" d="
  M 181.4309 837.1701
  A 7.17 6.87 -114.2 0 0 178.1037 846.5262
  A 7.17 6.87 -114.2 0 0 187.3091 850.2499
  A 7.17 6.87 -114.2 0 0 190.6363 840.8938
  A 7.17 6.87 -114.2 0 0 181.4309 837.1701"
/>
<path stroke="#a1a2a1" vector-effect="non-scaling-stroke" d="
  M 356.88 897.46
  Q 363.61 897.46 363.67 897.47
  A 0.80 0.78 -9.3 0 1 364.37 897.96
  L 366.59 903.36
  A 2.28 2.27 -23.7 0 0 369.67 904.55
  L 369.73 904.52
  A 2.16 2.15 -24.3 0 0 370.82 901.64
  Q 364.69 888.40 359.79 877.41
  Q 358.69 874.94 356.89 874.94
  Q 355.09 874.94 353.99 877.41
  Q 349.08 888.39 342.93 901.63
  A 2.16 2.15 24.4 0 0 344.02 904.50
  L 344.08 904.54
  A 2.28 2.27 23.8 0 0 347.16 903.35
  L 349.38 897.95
  A 0.80 0.78 9.4 0 1 350.08 897.46
  Q 350.14 897.46 356.88 897.46"
/>
<path stroke="#a1a2a1" vector-effect="non-scaling-stroke" d="
  M 475.19 897.64
  Q 481.95 897.61 482.01 897.61
  A 0.80 0.79 -9.6 0 1 482.71 898.10
  L 484.96 903.51
  A 2.29 2.28 -24.0 0 0 488.06 904.69
  L 488.12 904.65
  A 2.17 2.16 -24.6 0 0 489.20 901.76
  Q 482.98 888.51 478.01 877.51
  Q 476.89 875.04 475.09 875.05
  Q 473.28 875.05 472.19 877.54
  Q 467.32 888.58 461.22 901.89
  A 2.17 2.16 24.1 0 0 462.32 904.77
  L 462.38 904.81
  A 2.29 2.28 23.5 0 0 465.47 903.60
  L 467.67 898.17
  A 0.80 0.79 9.1 0 1 468.37 897.67
  Q 468.43 897.67 475.19 897.64"
/>
<path stroke="#a1a2a1" vector-effect="non-scaling-stroke" d="
  M 205.03 893.23
  C 211.31 893.22 217.40 894.02 220.54 889.94
  Q 222.81 887.00 222.09 882.50
  C 220.62 873.28 210.56 875.28 201.76 875.52
  A 1.90 1.90 0.0 0 0 199.91 877.42
  L 199.91 903.03
  A 1.69 1.69 0.0 0 0 201.60 904.72
  L 202.67 904.72
  A 1.81 1.80 -90.0 0 0 204.47 902.91
  L 204.47 893.78
  A 0.56 0.55 -0.0 0 1 205.03 893.23"
/>
<path stroke="#a1a2a1" vector-effect="non-scaling-stroke" d="
  M 258.36 888.57
  A 0.83 0.83 0.0 0 0 257.53 887.74
  L 244.96 887.74
  A 0.83 0.83 0.0 0 1 244.13 886.91
  L 244.13 879.88
  A 0.83 0.83 0.0 0 1 244.96 879.05
  L 258.55 879.05
  A 0.83 0.83 0.0 0 0 259.38 878.22
  L 259.38 876.24
  A 0.83 0.83 0.0 0 0 258.55 875.41
  L 240.53 875.41
  A 0.83 0.83 0.0 0 0 239.70 876.24
  L 239.70 903.81
  A 0.83 0.83 0.0 0 0 240.53 904.64
  L 258.46 904.64
  A 0.83 0.83 0.0 0 0 259.29 903.81
  L 259.29 901.61
  A 0.83 0.83 0.0 0 0 258.46 900.78
  L 245.14 900.78
  A 0.83 0.83 0.0 0 1 244.31 899.95
  L 244.31 892.35
  A 0.83 0.83 0.0 0 1 245.14 891.52
  L 257.53 891.52
  A 0.83 0.83 0.0 0 0 258.36 890.69
  L 258.36 888.57"
/>
<path stroke="#a1a2a1" vector-effect="non-scaling-stroke" d="
  M 325.4203 876.9807
  A 1.82 1.82 0.0 0 0 323.5782 875.1830
  L 322.2583 875.1992
  A 1.82 1.82 0.0 0 0 320.4606 877.0413
  L 320.7797 903.1593
  A 1.82 1.82 0.0 0 0 322.6218 904.9570
  L 323.9417 904.9408
  A 1.82 1.82 0.0 0 0 325.7394 903.0987
  L 325.4203 876.9807"
/>
<path stroke="#a1a2a1" vector-effect="non-scaling-stroke" d="
  M 393.60 904.81
  C 395.06 904.81 395.97 904.23 395.95 902.66
  Q 395.75 888.51 395.75 880.01
  A 0.64 0.64 0.0 0 1 396.38 879.37
  L 404.60 879.26
  A 1.95 1.95 0.0 0 0 406.52 877.36
  L 406.52 877.18
  A 1.79 1.79 0.0 0 0 404.75 875.29
  Q 399.09 875.22 393.46 875.32
  Q 387.83 875.28 382.17 875.40
  A 1.79 1.79 0.0 0 0 380.42 877.30
  L 380.42 877.48
  A 1.95 1.95 0.0 0 0 382.36 879.37
  L 390.58 879.40
  A 0.64 0.64 0.0 0 1 391.22 880.03
  Q 391.30 888.53 391.24 902.68
  C 391.23 904.25 392.15 904.82 393.60 904.81"
/>
<path stroke="#a1a2a1" vector-effect="non-scaling-stroke" d="
  M 276.84 877.37
  L 276.66 902.51
  A 2.04 2.04 0.0 0 0 278.69 904.56
  L 288.75 904.63
  A 13.74 13.28 0.4 0 0 302.58 891.45
  L 302.60 888.79
  A 13.74 13.28 0.4 0 0 288.95 875.41
  L 278.89 875.34
  A 2.04 2.04 0.0 0 0 276.84 877.37"
/>
<path stroke="#a1a2a1" vector-effect="non-scaling-stroke" d="
  M 438.44 892.46
  A 0.36 0.36 0.0 0 1 438.63 891.85
  C 442.81 891.07 444.74 887.65 444.66 883.58
  Q 444.50 875.65 435.22 875.48
  Q 430.09 875.38 423.38 875.45
  A 1.37 1.37 0.0 0 0 422.02 876.82
  L 422.02 902.98
  A 1.88 1.88 0.0 0 0 423.90 904.86
  L 425.03 904.86
  A 1.74 1.74 0.0 0 0 426.77 903.12
  L 426.77 893.44
  A 0.55 0.54 90.0 0 1 427.31 892.89
  C 430.99 892.84 433.10 892.37 435.44 895.59
  Q 437.57 898.52 440.60 903.51
  A 2.81 2.81 0.0 0 0 443.00 904.86
  L 443.76 904.86
  A 1.63 1.63 0.0 0 0 445.23 902.52
  Q 442.07 896.01 438.44 892.46"
/>
<path stroke="#b19bc9" vector-effect="non-scaling-stroke" d="
  M 263.0065 708.6538
  A 1.78 1.78 0.0 0 0 261.6726 706.5190
  L 254.3843 704.8364
  A 1.78 1.78 0.0 0 0 252.2495 706.1703
  L 252.2135 706.3262
  A 1.78 1.78 0.0 0 0 253.5474 708.4610
  L 260.8357 710.1436
  A 1.78 1.78 0.0 0 0 262.9705 708.8097
  L 263.0065 708.6538"
/>
<path stroke="#b19bc9" vector-effect="non-scaling-stroke" d="
  M 246.54 707.30
  L 246.13 705.71
  A 0.48 0.48 0.0 0 0 245.54 705.37
  L 241.37 706.46
  A 4.15 1.21 -14.7 0 0 237.66 708.69
  L 237.71 708.86
  A 4.15 1.21 -14.7 0 0 242.03 708.98
  L 246.20 707.88
  A 0.48 0.48 0.0 0 0 246.54 707.30"
/>
<path stroke="#b19bc9" vector-effect="non-scaling-stroke" d="
  M 268.1531 713.3044
  A 6.49 2.13 -117.9 0 0 269.3076 720.0367
  A 6.49 2.13 -117.9 0 0 274.2269 724.7756
  A 6.49 2.13 -117.9 0 0 273.0724 718.0433
  A 6.49 2.13 -117.9 0 0 268.1531 713.3044"
/>
<path stroke="#b19bc9" vector-effect="non-scaling-stroke" d="
  M 69.99 804.16
  L 69.93 839.46
  A 0.28 0.28 0.0 0 0 70.21 839.74
  L 80.47 839.76
  A 15.10 14.90 -89.9 0 0 95.40 824.68
  L 95.40 819.02
  A 15.10 14.90 -89.9 0 0 80.53 803.90
  L 70.27 803.88
  A 0.28 0.28 0.0 0 0 69.99 804.16"
/>
<path stroke="#8acbe5" vector-effect="non-scaling-stroke" d="
  M 474.51 832.46
  C 471.52 832.61 465.63 832.81 463.43 835.14
  A 1.87 1.80 72.1 0 0 462.95 836.12
  Q 462.19 841.41 467.33 842.13
  C 473.09 842.94 474.77 837.83 475.24 833.23
  A 0.70 0.69 1.7 0 0 474.51 832.46"
/>
<path stroke="#8acbe5" vector-effect="non-scaling-stroke" d="
  M 536.9012 819.1116
  A 10.38 9.06 -89.0 0 0 527.6614 829.3319
  A 10.38 9.06 -89.0 0 0 536.5388 839.8684
  A 10.38 9.06 -89.0 0 0 545.7786 829.6481
  A 10.38 9.06 -89.0 0 0 536.9012 819.1116"
/>
<path stroke="#b19bc9" vector-effect="non-scaling-stroke" d="
  M 161.77 832.55
  Q 159.35 832.30 154.90 832.88
  C 147.74 833.81 149.14 842.52 155.51 842.26
  C 160.16 842.07 162.58 837.49 162.39 833.22
  A 0.71 0.70 -88.1 0 0 161.77 832.55"
/>
<path stroke="#b19bc9" vector-effect="non-scaling-stroke" d="
  M 276.7755 818.5730
  A 11.66 8.75 -91.3 0 0 268.2923 830.4285
  A 11.66 8.75 -91.3 0 0 277.3045 841.8870
  A 11.66 8.75 -91.3 0 0 285.7877 830.0315
  A 11.66 8.75 -91.3 0 0 276.7755 818.5730"
/>
<path stroke="#b19bc9" vector-effect="non-scaling-stroke" d="
  M 369.34 832.66
  Q 366.96 832.38 362.57 832.89
  C 355.51 833.72 356.78 842.32 363.05 842.14
  C 367.64 842.01 370.08 837.53 369.94 833.32
  A 0.70 0.69 -87.4 0 0 369.34 832.66"
/>
<path stroke="#8acbe5" vector-effect="non-scaling-stroke" d="
  M 584.56 832.61
  Q 582.15 832.36 577.72 832.94
  C 570.60 833.86 571.98 842.53 578.32 842.27
  C 582.95 842.09 585.36 837.53 585.18 833.28
  A 0.71 0.70 -88.1 0 0 584.56 832.61"
/>
<path stroke="#a1a2a1" vector-effect="non-scaling-stroke" d="
  M 351.45 893.28
  A 0.33 0.33 0.0 0 0 351.74 893.74
  L 361.81 893.86
  A 0.33 0.33 0.0 0 0 362.12 893.41
  L 357.23 881.44
  A 0.33 0.33 0.0 0 0 356.62 881.44
  L 351.45 893.28"
/>
<path stroke="#a1a2a1" vector-effect="non-scaling-stroke" d="
  M 470.02 893.68
  L 479.95 893.58
  A 0.35 0.35 0.0 0 0 480.27 893.09
  L 475.38 881.26
  A 0.31 0.30 -44.6 0 0 474.82 881.26
  L 469.69 893.19
  A 0.35 0.35 0.0 0 0 470.02 893.68"
/>
<path stroke="#a1a2a1" vector-effect="non-scaling-stroke" d="
  M 204.47 879.70
  L 204.41 888.90
  A 0.59 0.59 0.0 0 0 204.99 889.50
  L 212.37 889.55
  A 5.05 4.73 0.4 0 0 217.46 884.86
  L 217.46 883.94
  A 5.05 4.73 0.4 0 0 212.45 879.17
  L 205.07 879.12
  A 0.59 0.59 0.0 0 0 204.47 879.70"
/>
<path stroke="#a1a2a1" vector-effect="non-scaling-stroke" d="
  M 281.37 879.92
  L 281.51 900.16
  A 0.62 0.62 0.0 0 0 282.14 900.77
  L 288.30 900.73
  A 9.28 9.02 -0.4 0 0 297.51 891.64
  L 297.49 888.20
  A 9.28 9.02 -0.4 0 0 288.15 879.25
  L 281.99 879.29
  A 0.62 0.62 0.0 0 0 281.37 879.92"
/>
<path stroke="#a1a2a1" vector-effect="non-scaling-stroke" d="
  M 426.47 879.45
  L 426.61 888.75
  A 0.23 0.23 0.0 0 0 426.85 888.97
  L 434.90 888.85
  A 5.26 4.58 -0.9 0 0 440.08 884.18
  L 440.07 883.58
  A 5.26 4.58 -0.9 0 0 434.74 879.09
  L 426.69 879.21
  A 0.23 0.23 0.0 0 0 426.47 879.45"
/>
</g>
<path fill="#ffffff" d="
  M 688.00 0.00
  L 688.00 1504.00
  L 0.00 1504.00
  L 0.00 0.00
  L 688.00 0.00
  Z
  M 392.31 660.76
  C 398.97 670.37 398.75 681.21 392.65 691.14
  Q 386.00 701.95 373.48 706.66
  C 367.75 708.81 361.41 709.09 355.80 708.69
  A 0.57 0.57 0.0 0 0 355.19 709.26
  L 355.19 758.14
  A 0.60 0.60 0.0 0 0 355.79 758.74
  L 446.70 757.78
  A 0.89 0.88 -6.1 0 0 447.56 756.72
  C 446.32 750.81 444.77 744.18 442.57 738.04
  C 438.60 726.95 434.91 715.04 432.06 702.23
  C 430.11 693.43 427.59 684.96 423.32 677.15
  Q 415.38 662.61 403.86 651.70
  Q 396.87 644.89 393.89 642.85
  Q 380.55 633.70 368.93 623.57
  Q 366.27 621.25 364.34 618.72
  A 1.09 1.09 0.0 0 1 364.69 617.09
  C 366.76 615.98 373.05 617.18 375.67 617.86
  Q 381.74 619.46 382.92 619.65
  Q 391.03 620.91 405.74 625.76
  Q 414.61 628.68 424.96 628.94
  C 448.56 629.22 465.12 617.37 480.95 600.54
  A 0.40 0.40 0.0 0 0 480.66 599.87
  L 457.35 600.11
  A 1.14 1.14 0.0 0 0 456.24 601.07
  Q 454.25 613.57 442.79 618.77
  Q 434.14 622.69 424.74 618.16
  C 410.30 608.85 412.01 590.25 425.66 581.41
  C 431.41 577.67 439.22 577.77 445.32 581.47
  Q 454.58 587.10 456.36 598.09
  A 0.32 0.32 0.0 0 0 456.97 598.17
  C 460.58 590.17 458.82 581.81 455.29 574.18
  C 446.45 555.11 419.44 551.64 405.81 566.75
  C 397.87 575.57 394.54 588.73 399.99 599.57
  A 0.46 0.46 0.0 0 1 399.58 600.24
  L 356.18 600.24
  A 0.82 0.81 -90.0 0 0 355.37 601.06
  L 355.37 644.77
  A 0.68 0.67 -87.7 0 0 355.99 645.45
  C 361.46 645.94 367.27 645.85 372.42 647.23
  Q 384.59 650.48 392.31 660.76
  Z
  M 291.32 599.21
  C 286.10 591.24 275.34 590.94 269.36 598.16
  C 265.65 602.63 266.06 610.93 269.09 615.68
  Q 276.87 627.90 289.20 635.43
  A 2.53 2.50 -44.5 0 0 291.80 635.44
  C 301.06 629.90 309.14 622.88 314.19 613.24
  Q 317.29 607.30 315.26 601.54
  C 312.52 593.77 303.23 591.33 296.35 594.66
  Q 293.29 596.13 292.16 599.12
  A 0.47 0.47 0.0 0 1 291.32 599.21
  Z
  M 499.52 684.75
  Q 498.82 640.41 499.59 601.37
  A 1.49 1.48 4.8 0 0 498.32 599.87
  Q 496.57 599.61 494.61 599.97
  A 2.13 2.12 4.5 0 0 492.98 601.35
  C 490.40 608.66 488.34 614.63 485.04 621.48
  Q 480.40 631.14 478.13 637.03
  Q 471.24 654.90 483.55 668.74
  Q 491.35 677.52 498.57 685.13
  A 0.55 0.55 0.0 0 0 499.52 684.75
  Z
  M 229.79 672.02
  Q 229.65 690.99 229.77 709.91
  Q 229.78 711.20 229.62 715.09
  C 229.04 729.39 240.62 747.19 256.28 747.41
  Q 284.28 747.79 316.76 747.58
  C 318.82 747.57 320.59 747.90 322.35 747.78
  A 0.85 0.84 2.0 0 0 323.14 747.05
  Q 323.91 741.26 321.60 737.03
  C 318.85 732.00 313.46 732.46 308.56 733.90
  C 301.36 736.01 296.79 736.98 289.59 739.39
  Q 285.22 740.85 280.65 741.43
  A 1.41 1.41 0.0 0 1 279.22 740.67
  Q 276.58 735.48 276.03 730.40
  A 0.85 0.85 0.0 0 1 277.45 729.68
  Q 280.47 732.43 280.16 737.20
  Q 280.12 737.87 280.97 738.99
  A 0.20 0.19 21.5 0 0 281.32 738.84
  L 280.78 735.69
  A 1.98 1.95 54.2 0 1 280.97 734.46
  Q 282.64 731.17 285.83 727.94
  C 290.51 723.18 292.16 720.64 297.01 715.02
  C 302.14 709.09 306.84 702.40 306.15 694.40
  C 305.88 691.32 303.62 686.40 302.21 684.07
  Q 297.41 676.17 293.01 667.95
  Q 290.96 663.66 288.79 659.30
  Q 285.48 652.66 285.34 646.16
  A 0.89 0.89 0.0 0 0 284.71 645.32
  Q 277.30 643.09 271.66 637.06
  C 264.00 628.86 263.42 619.02 265.76 608.17
  A 1.52 1.52 0.0 0 0 264.24 606.33
  Q 250.49 606.58 236.77 606.55
  C 232.43 606.54 230.10 609.59 230.11 613.81
  Q 230.20 643.54 229.79 672.02
  Z
  M 308.22 663.96
  Q 316.94 669.99 324.51 672.01
  C 333.48 674.40 344.95 672.63 354.14 668.61
  C 360.87 665.66 367.11 663.77 373.72 661.97
  A 0.67 0.67 0.0 0 1 374.57 662.68
  C 373.96 669.09 369.89 675.79 365.77 680.77
  Q 361.19 686.31 351.30 695.70
  C 345.87 700.85 343.14 703.89 341.79 710.54
  Q 338.15 728.62 336.06 746.72
  A 0.62 0.62 0.0 0 0 336.71 747.41
  Q 340.99 747.22 348.54 747.40
  Q 351.86 747.48 351.77 744.02
  Q 351.32 726.13 351.83 706.85
  A 1.22 1.22 0.0 0 1 353.05 705.66
  C 363.64 705.69 375.53 700.56 381.44 691.82
  C 389.32 680.18 387.75 666.46 378.32 656.68
  Q 374.46 652.67 367.88 650.78
  Q 360.84 649.00 352.16 649.43
  A 0.42 0.42 0.0 0 1 351.72 649.01
  Q 351.58 630.09 351.82 611.06
  C 351.88 606.99 348.65 606.23 345.03 606.26
  Q 339.44 606.29 318.18 606.50
  A 1.02 1.02 0.0 0 0 317.19 607.71
  Q 318.36 613.89 318.00 620.52
  C 317.32 633.20 308.96 642.76 296.53 645.76
  Q 292.82 646.65 289.22 646.40
  A 0.55 0.55 0.0 0 0 288.81 647.35
  C 295.30 653.27 300.74 659.03 308.22 663.96
  Z
  M 173.1900 691.5536
  A 0.92 0.66 -179.6 0 0 174.1054 692.2200
  A 0.92 0.66 -179.6 0 0 175.0300 691.5664
  A 0.92 0.66 -179.6 0 0 174.1146 690.9000
  A 0.92 0.66 -179.6 0 0 173.1900 691.5536
  Z
  M 178.5217 698.3232
  A 0.80 0.80 0.0 0 0 177.4980 697.8415
  L 177.4415 697.8619
  A 0.80 0.80 0.0 0 0 176.9598 698.8856
  L 178.9583 704.4368
  A 0.80 0.80 0.0 0 0 179.9820 704.9185
  L 180.0385 704.8981
  A 0.80 0.80 0.0 0 0 180.5202 703.8744
  L 178.5217 698.3232
  Z
  M 459.08 758.28
  Q 476.47 758.86 488.91 746.35
  Q 494.00 741.23 497.31 732.90
  Q 499.48 727.43 499.49 719.94
  Q 499.50 713.21 499.48 706.69
  A 1.07 1.07 0.0 0 0 498.63 705.64
  Q 484.40 702.77 472.60 701.18
  C 466.46 700.36 458.40 703.79 458.36 710.80
  Q 458.21 733.46 458.73 757.92
  A 0.36 0.36 0.0 0 0 459.08 758.28
  Z
  M 183.23 710.60
  L 187.36 716.93
  A 0.14 0.14 0.0 0 0 187.55 716.97
  L 187.58 716.95
  A 3.17 2.30 56.9 0 0 187.78 713.04
  L 186.96 711.78
  A 3.17 2.30 56.9 0 0 183.30 710.39
  L 183.27 710.41
  A 0.14 0.14 0.0 0 0 183.23 710.60
  Z
  M 348.05 757.35
  L 354.16 752.96
  A 0.12 0.12 0.0 0 0 354.19 752.79
  L 354.17 752.77
  A 2.92 1.93 -35.7 0 0 350.67 752.91
  L 349.11 754.03
  A 2.92 1.93 -35.7 0 0 347.87 757.30
  L 347.89 757.32
  A 0.12 0.12 0.0 0 0 348.05 757.35
  Z
  M 334.24 805.54
  A 3.66 3.66 0.0 0 0 339.29 805.84
  Q 343.46 802.32 347.81 798.82
  C 351.74 795.66 352.03 790.95 347.45 788.54
  Q 344.67 787.08 343.16 789.13
  Q 338.55 795.35 334.12 800.35
  A 3.80 3.80 0.0 0 0 334.18 805.46
  L 334.24 805.54
  Z
  M 427.53 850.76
  C 431.41 850.76 433.28 849.07 434.87 845.55
  Q 441.23 831.40 454.69 802.17
  Q 455.53 800.36 455.82 798.72
  C 456.96 792.32 446.98 790.00 444.32 796.04
  Q 434.96 817.20 428.16 832.64
  Q 427.83 833.39 427.53 833.39
  Q 427.23 833.39 426.90 832.64
  Q 420.09 817.20 410.73 796.04
  C 408.07 790.00 398.09 792.32 399.23 798.72
  Q 399.52 800.36 400.36 802.17
  Q 413.82 831.40 420.19 845.55
  C 421.77 849.07 423.65 850.76 427.53 850.76
  Z
  M 211.15 836.89
  C 204.29 846.94 223.37 850.44 229.03 850.79
  C 236.57 851.25 244.42 850.34 249.78 845.43
  Q 255.95 839.78 255.19 831.88
  C 254.00 819.40 238.03 818.64 229.78 815.60
  C 226.26 814.30 222.91 812.59 223.75 808.47
  C 224.73 803.66 230.37 802.36 234.79 802.68
  Q 241.09 803.15 246.39 806.56
  C 249.21 808.37 252.56 809.05 254.25 806.02
  C 256.58 801.83 252.98 798.12 249.39 796.32
  Q 241.10 792.16 231.85 792.71
  C 222.11 793.29 213.20 797.80 211.53 808.12
  C 208.89 824.44 227.44 825.83 237.36 829.39
  Q 241.01 830.70 241.83 831.95
  Q 244.46 835.90 241.27 838.34
  C 234.63 843.43 223.64 840.54 217.20 836.55
  C 215.37 835.42 212.40 835.06 211.15 836.89
  Z
  M 57.19 799.06
  L 57.19 844.48
  A 5.64 5.64 0.0 0 0 62.83 850.12
  L 82.09 850.12
  A 26.16 25.77 0.0 0 0 108.25 824.35
  L 108.25 819.19
  A 26.16 25.77 -0.0 0 0 82.09 793.42
  L 62.83 793.42
  A 5.64 5.64 0.0 0 0 57.19 799.06
  Z
  M 302.70 811.08
  C 298.25 810.60 293.78 810.59 295.39 816.85
  C 296.37 820.61 300.04 819.48 302.72 819.73
  A 0.61 0.61 0.0 0 1 303.28 820.34
  Q 303.29 823.61 303.14 841.50
  Q 303.10 846.13 303.72 847.86
  A 3.02 2.97 10.8 0 0 304.62 849.16
  Q 308.50 852.44 313.30 849.85
  A 2.09 2.06 -1.6 0 0 314.18 848.93
  Q 315.27 846.68 315.39 844.25
  Q 315.50 841.81 315.27 820.73
  A 0.59 0.59 0.0 0 1 315.86 820.13
  L 322.36 820.13
  A 3.74 3.74 0.0 0 0 326.10 816.39
  L 326.10 814.80
  A 3.96 3.96 0.0 0 0 322.14 810.84
  L 315.79 810.84
  A 0.76 0.76 0.0 0 1 315.05 809.93
  L 315.86 806.08
  A 3.44 3.43 -89.0 0 1 318.63 803.40
  L 324.95 802.32
  A 4.11 4.10 85.2 0 0 328.36 798.27
  L 328.36 796.97
  A 3.80 3.80 0.0 0 0 324.40 793.17
  C 313.09 793.63 303.63 797.50 303.21 810.63
  A 0.46 0.46 0.0 0 1 302.70 811.08
  Z
  M 475.45 845.81
  Q 476.61 850.57 480.32 850.99
  C 483.91 851.40 487.06 849.08 487.19 845.47
  Q 487.42 838.95 487.04 825.60
  Q 486.91 820.66 486.01 818.46
  C 481.51 807.42 467.69 808.78 458.53 811.53
  C 454.56 812.73 449.94 815.77 452.62 820.48
  Q 453.99 822.87 457.26 822.05
  Q 458.32 821.78 465.19 819.71
  Q 467.55 819.00 472.19 819.59
  A 3.14 3.13 88.7 0 1 474.89 822.18
  L 475.36 824.88
  A 1.60 1.60 0.0 0 1 473.67 826.74
  Q 466.86 826.24 459.61 827.93
  C 454.42 829.14 451.39 831.41 450.75 836.51
  C 449.60 845.62 458.06 851.87 466.53 851.08
  Q 472.22 850.56 474.79 845.73
  A 0.36 0.35 -37.9 0 1 475.45 845.81
  Z
  M 518.43 818.56
  C 513.11 828.56 514.80 842.84 526.44 847.52
  Q 537.21 851.84 545.10 844.27
  A 0.37 0.37 0.0 0 1 545.73 844.53
  C 546.08 858.92 533.31 856.62 523.66 853.25
  A 3.98 3.98 0.0 0 0 518.43 856.30
  L 518.40 856.47
  A 5.73 5.72 15.2 0 0 522.07 862.88
  C 530.48 865.96 542.57 867.04 550.04 862.38
  C 558.06 857.38 557.58 849.03 557.66 840.01
  Q 557.84 820.94 557.86 817.27
  C 557.88 812.31 555.24 809.22 550.20 810.03
  Q 546.84 810.58 545.66 814.36
  A 0.42 0.41 -58.5 0 1 544.97 814.53
  Q 539.22 808.71 531.23 809.72
  Q 525.07 810.49 521.58 813.96
  C 520.74 814.79 520.16 815.99 519.68 816.43
  A 0.25 0.25 0.0 0 1 519.28 816.16
  C 520.44 812.92 519.11 810.15 515.63 809.93
  Q 507.71 809.42 503.28 815.49
  A 0.26 0.25 -25.5 0 1 502.82 815.33
  C 503.18 808.14 491.10 807.50 491.06 816.57
  Q 490.98 839.80 490.96 841.50
  Q 490.91 845.45 491.28 847.00
  C 492.03 850.11 496.15 851.88 499.22 850.94
  Q 503.37 849.66 503.36 845.24
  Q 503.35 833.93 503.73 827.94
  C 504.20 820.62 510.87 820.99 515.80 819.80
  Q 516.59 819.61 518.07 818.28
  A 0.23 0.23 0.0 0 1 518.43 818.56
  Z
  M 599.84 839.43
  Q 598.83 840.48 598.90 843.25
  C 598.97 846.11 601.56 848.07 603.88 848.91
  C 612.79 852.14 628.88 852.65 632.82 841.84
  C 634.51 837.21 632.95 832.10 628.45 829.44
  C 624.11 826.87 619.93 826.53 615.31 825.43
  Q 613.39 824.97 611.61 823.49
  A 1.38 1.35 -66.9 0 1 611.14 822.28
  C 611.94 815.79 621.69 819.76 626.25 821.75
  A 4.15 4.15 0.0 0 0 631.87 819.13
  L 631.92 818.95
  A 5.49 5.48 -69.3 0 0 628.96 812.40
  C 620.01 808.27 604.84 807.63 600.44 818.46
  C 597.31 826.17 602.66 831.09 609.84 833.28
  Q 614.58 834.73 618.12 835.63
  Q 619.96 836.10 620.87 837.19
  A 2.25 2.25 0.0 0 1 620.31 840.55
  C 617.89 842.02 612.24 841.46 610.06 840.67
  Q 606.69 839.46 603.89 838.49
  A 3.93 3.80 30.9 0 0 599.84 839.43
  Z
  M 124.07 815.41
  Q 123.52 809.69 118.36 809.82
  C 114.79 809.92 112.47 812.02 112.40 815.49
  Q 112.16 826.61 112.06 843.20
  C 112.04 847.18 112.75 850.27 116.97 850.80
  C 123.68 851.65 124.30 847.43 124.33 841.70
  Q 124.37 835.81 124.33 829.96
  C 124.26 821.05 131.02 821.09 137.49 819.91
  C 138.24 819.77 138.69 818.89 139.17 818.63
  A 0.46 0.46 0.0 0 1 139.84 818.98
  Q 140.35 822.63 144.25 821.80
  C 148.74 820.85 163.82 814.34 162.49 826.09
  A 0.63 0.62 -86.9 0 1 161.87 826.65
  Q 156.20 826.66 150.50 827.48
  C 144.43 828.35 138.69 829.99 138.31 837.01
  Q 137.94 843.72 142.49 847.48
  C 148.25 852.24 157.85 853.13 162.07 845.99
  A 0.43 0.43 0.0 0 1 162.82 846.00
  Q 163.00 846.34 163.30 847.47
  C 164.09 850.40 167.45 851.35 170.28 850.73
  C 174.82 849.73 174.28 844.37 174.25 840.84
  Q 174.13 827.59 174.05 825.00
  C 173.74 815.30 168.74 810.35 159.11 809.76
  Q 150.12 809.21 141.07 813.46
  A 0.41 0.41 0.0 0 1 140.49 813.18
  C 139.17 807.06 129.89 810.70 126.88 812.88
  C 125.84 813.63 125.13 815.36 124.62 815.68
  A 0.36 0.36 0.0 0 1 124.07 815.41
  Z
  M 297.5967 828.0498
  A 18.66 18.66 0.0 0 0 278.5501 809.7847
  L 274.7509 809.8643
  A 18.66 18.66 0.0 0 0 256.4858 828.9110
  L 256.5633 832.6102
  A 18.66 18.66 0.0 0 0 275.6099 850.8753
  L 279.4091 850.7957
  A 18.66 18.66 0.0 0 0 297.6742 831.7490
  L 297.5967 828.0498
  Z
  M 370.72 846.06
  C 371.32 850.24 373.85 851.78 377.70 850.70
  Q 381.62 849.60 381.66 844.48
  Q 381.78 826.76 381.48 823.53
  C 380.55 813.66 374.01 809.84 364.74 809.73
  Q 359.40 809.66 350.69 812.36
  A 5.56 5.55 78.6 0 0 346.81 818.22
  L 346.83 818.42
  A 4.15 4.14 -10.0 0 0 351.98 822.02
  C 356.67 820.83 360.41 818.66 366.71 819.42
  A 3.52 3.51 88.4 0 1 369.75 822.31
  L 370.16 824.73
  A 1.83 1.83 0.0 0 1 368.25 826.87
  C 360.88 826.44 347.20 826.70 345.87 836.10
  C 344.69 844.37 350.43 850.32 358.36 851.17
  Q 365.94 851.99 370.00 845.90
  A 0.40 0.39 -32.4 0 1 370.72 846.06
  Z
  M 585.56 845.78
  Q 585.69 846.12 585.79 846.67
  C 586.36 849.85 588.67 851.27 592.01 851.01
  Q 596.32 850.68 596.71 846.66
  Q 597.42 839.22 596.72 824.03
  Q 596.51 819.38 594.88 816.45
  C 589.63 807.01 572.52 808.89 564.74 813.41
  Q 561.39 815.35 562.17 818.87
  C 562.76 821.53 565.03 822.56 567.52 821.76
  C 573.03 819.97 576.46 818.64 582.06 819.68
  A 3.58 3.57 0.5 0 1 584.93 822.59
  L 585.31 824.80
  A 1.74 1.73 87.4 0 1 583.47 826.82
  Q 577.77 826.38 569.81 828.06
  C 562.17 829.67 559.10 835.91 561.97 842.78
  C 565.04 850.09 576.15 854.01 582.41 848.83
  C 583.44 847.98 584.41 845.90 584.86 845.58
  A 0.46 0.46 0.0 0 1 585.56 845.78
  Z
  M 342.4031 815.3860
  A 5.46 5.46 0.0 0 0 336.8862 809.9835
  L 335.4263 809.9988
  A 5.46 5.46 0.0 0 0 330.0238 815.5156
  L 330.3369 845.4140
  A 5.46 5.46 0.0 0 0 335.8538 850.8165
  L 337.3137 850.8012
  A 5.46 5.46 0.0 0 0 342.7162 845.2844
  L 342.4031 815.3860
  Z
  M 181.4309 837.1701
  A 7.17 6.87 -114.2 0 0 178.1037 846.5262
  A 7.17 6.87 -114.2 0 0 187.3091 850.2499
  A 7.17 6.87 -114.2 0 0 190.6363 840.8938
  A 7.17 6.87 -114.2 0 0 181.4309 837.1701
  Z
  M 356.88 897.46
  Q 363.61 897.46 363.67 897.47
  A 0.80 0.78 -9.3 0 1 364.37 897.96
  L 366.59 903.36
  A 2.28 2.27 -23.7 0 0 369.67 904.55
  L 369.73 904.52
  A 2.16 2.15 -24.3 0 0 370.82 901.64
  Q 364.69 888.40 359.79 877.41
  Q 358.69 874.94 356.89 874.94
  Q 355.09 874.94 353.99 877.41
  Q 349.08 888.39 342.93 901.63
  A 2.16 2.15 24.4 0 0 344.02 904.50
  L 344.08 904.54
  A 2.28 2.27 23.8 0 0 347.16 903.35
  L 349.38 897.95
  A 0.80 0.78 9.4 0 1 350.08 897.46
  Q 350.14 897.46 356.88 897.46
  Z
  M 475.19 897.64
  Q 481.95 897.61 482.01 897.61
  A 0.80 0.79 -9.6 0 1 482.71 898.10
  L 484.96 903.51
  A 2.29 2.28 -24.0 0 0 488.06 904.69
  L 488.12 904.65
  A 2.17 2.16 -24.6 0 0 489.20 901.76
  Q 482.98 888.51 478.01 877.51
  Q 476.89 875.04 475.09 875.05
  Q 473.28 875.05 472.19 877.54
  Q 467.32 888.58 461.22 901.89
  A 2.17 2.16 24.1 0 0 462.32 904.77
  L 462.38 904.81
  A 2.29 2.28 23.5 0 0 465.47 903.60
  L 467.67 898.17
  A 0.80 0.79 9.1 0 1 468.37 897.67
  Q 468.43 897.67 475.19 897.64
  Z
  M 205.03 893.23
  C 211.31 893.22 217.40 894.02 220.54 889.94
  Q 222.81 887.00 222.09 882.50
  C 220.62 873.28 210.56 875.28 201.76 875.52
  A 1.90 1.90 0.0 0 0 199.91 877.42
  L 199.91 903.03
  A 1.69 1.69 0.0 0 0 201.60 904.72
  L 202.67 904.72
  A 1.81 1.80 -90.0 0 0 204.47 902.91
  L 204.47 893.78
  A 0.56 0.55 -0.0 0 1 205.03 893.23
  Z
  M 258.36 888.57
  A 0.83 0.83 0.0 0 0 257.53 887.74
  L 244.96 887.74
  A 0.83 0.83 0.0 0 1 244.13 886.91
  L 244.13 879.88
  A 0.83 0.83 0.0 0 1 244.96 879.05
  L 258.55 879.05
  A 0.83 0.83 0.0 0 0 259.38 878.22
  L 259.38 876.24
  A 0.83 0.83 0.0 0 0 258.55 875.41
  L 240.53 875.41
  A 0.83 0.83 0.0 0 0 239.70 876.24
  L 239.70 903.81
  A 0.83 0.83 0.0 0 0 240.53 904.64
  L 258.46 904.64
  A 0.83 0.83 0.0 0 0 259.29 903.81
  L 259.29 901.61
  A 0.83 0.83 0.0 0 0 258.46 900.78
  L 245.14 900.78
  A 0.83 0.83 0.0 0 1 244.31 899.95
  L 244.31 892.35
  A 0.83 0.83 0.0 0 1 245.14 891.52
  L 257.53 891.52
  A 0.83 0.83 0.0 0 0 258.36 890.69
  L 258.36 888.57
  Z
  M 325.4203 876.9807
  A 1.82 1.82 0.0 0 0 323.5782 875.1830
  L 322.2583 875.1992
  A 1.82 1.82 0.0 0 0 320.4606 877.0413
  L 320.7797 903.1593
  A 1.82 1.82 0.0 0 0 322.6218 904.9570
  L 323.9417 904.9408
  A 1.82 1.82 0.0 0 0 325.7394 903.0987
  L 325.4203 876.9807
  Z
  M 393.60 904.81
  C 395.06 904.81 395.97 904.23 395.95 902.66
  Q 395.75 888.51 395.75 880.01
  A 0.64 0.64 0.0 0 1 396.38 879.37
  L 404.60 879.26
  A 1.95 1.95 0.0 0 0 406.52 877.36
  L 406.52 877.18
  A 1.79 1.79 0.0 0 0 404.75 875.29
  Q 399.09 875.22 393.46 875.32
  Q 387.83 875.28 382.17 875.40
  A 1.79 1.79 0.0 0 0 380.42 877.30
  L 380.42 877.48
  A 1.95 1.95 0.0 0 0 382.36 879.37
  L 390.58 879.40
  A 0.64 0.64 0.0 0 1 391.22 880.03
  Q 391.30 888.53 391.24 902.68
  C 391.23 904.25 392.15 904.82 393.60 904.81
  Z
  M 276.84 877.37
  L 276.66 902.51
  A 2.04 2.04 0.0 0 0 278.69 904.56
  L 288.75 904.63
  A 13.74 13.28 0.4 0 0 302.58 891.45
  L 302.60 888.79
  A 13.74 13.28 0.4 0 0 288.95 875.41
  L 278.89 875.34
  A 2.04 2.04 0.0 0 0 276.84 877.37
  Z
  M 438.44 892.46
  A 0.36 0.36 0.0 0 1 438.63 891.85
  C 442.81 891.07 444.74 887.65 444.66 883.58
  Q 444.50 875.65 435.22 875.48
  Q 430.09 875.38 423.38 875.45
  A 1.37 1.37 0.0 0 0 422.02 876.82
  L 422.02 902.98
  A 1.88 1.88 0.0 0 0 423.90 904.86
  L 425.03 904.86
  A 1.74 1.74 0.0 0 0 426.77 903.12
  L 426.77 893.44
  A 0.55 0.54 90.0 0 1 427.31 892.89
  C 430.99 892.84 433.10 892.37 435.44 895.59
  Q 437.57 898.52 440.60 903.51
  A 2.81 2.81 0.0 0 0 443.00 904.86
  L 443.76 904.86
  A 1.63 1.63 0.0 0 0 445.23 902.52
  Q 442.07 896.01 438.44 892.46
  Z"
/>
<path fill="#15b2dd" d="
  M 424.74 618.16
  L 424.96 628.94
  Q 414.61 628.68 405.74 625.76
  Q 391.03 620.91 382.92 619.65
  Q 381.74 619.46 375.67 617.86
  C 373.05 617.18 366.76 615.98 364.69 617.09
  A 1.09 1.09 0.0 0 0 364.34 618.72
  Q 366.27 621.25 368.93 623.57
  Q 380.55 633.70 393.89 642.85
  Q 396.87 644.89 403.86 651.70
  L 392.31 660.76
  Q 384.59 650.48 372.42 647.23
  C 367.27 645.85 361.46 645.94 355.99 645.45
  A 0.68 0.67 -87.7 0 1 355.37 644.77
  L 355.37 601.06
  A 0.82 0.81 -90.0 0 1 356.18 600.24
  L 399.58 600.24
  A 0.46 0.46 0.0 0 0 399.99 599.57
  C 394.54 588.73 397.87 575.57 405.81 566.75
  C 419.44 551.64 446.45 555.11 455.29 574.18
  C 458.82 581.81 460.58 590.17 456.97 598.17
  A 0.32 0.32 0.0 0 1 456.36 598.09
  Q 454.58 587.10 445.32 581.47
  C 439.22 577.77 431.41 577.67 425.66 581.41
  C 412.01 590.25 410.30 608.85 424.74 618.16
  Z"
/>
<path fill="#7949b0" d="
  M 291.32 599.21
  A 0.47 0.47 0.0 0 0 292.16 599.12
  Q 293.29 596.13 296.35 594.66
  C 303.23 591.33 312.52 593.77 315.26 601.54
  Q 317.29 607.30 314.19 613.24
  C 309.14 622.88 301.06 629.90 291.80 635.44
  A 2.53 2.50 -44.5 0 1 289.20 635.43
  Q 276.87 627.90 269.09 615.68
  C 266.06 610.93 265.65 602.63 269.36 598.16
  C 275.34 590.94 286.10 591.24 291.32 599.21
  Z"
/>
<path fill="#1497cb" d="
  M 424.96 628.94
  L 424.74 618.16
  Q 434.14 622.69 442.79 618.77
  Q 454.25 613.57 456.24 601.07
  A 1.14 1.14 0.0 0 1 457.35 600.11
  L 480.66 599.87
  A 0.40 0.40 0.0 0 1 480.95 600.54
  C 465.12 617.37 448.56 629.22 424.96 628.94
  Z"
/>
<path fill="#1497cb" d="
  M 499.52 684.75
  A 0.55 0.55 0.0 0 1 498.57 685.13
  Q 491.35 677.52 483.55 668.74
  Q 471.24 654.90 478.13 637.03
  Q 480.40 631.14 485.04 621.48
  C 488.34 614.63 490.40 608.66 492.98 601.35
  A 2.13 2.12 4.5 0 1 494.61 599.97
  Q 496.57 599.61 498.32 599.87
  A 1.49 1.48 4.8 0 1 499.59 601.37
  Q 498.82 640.41 499.52 684.75
  Z"
/>
<path fill="#7949b0" d="
  M 293.01 667.95
  C 283.39 677.98 274.04 685.01 259.31 681.93
  C 249.19 679.81 239.41 675.81 229.79 672.02
  Q 230.20 643.54 230.11 613.81
  C 230.10 609.59 232.43 606.54 236.77 606.55
  Q 250.49 606.58 264.24 606.33
  A 1.52 1.52 0.0 0 1 265.76 608.17
  C 263.42 619.02 264.00 628.86 271.66 637.06
  Q 277.30 643.09 284.71 645.32
  A 0.89 0.89 0.0 0 1 285.34 646.16
  Q 285.48 652.66 288.79 659.30
  Q 290.96 663.66 293.01 667.95
  Z"
/>
<path fill="#7949b0" d="
  M 367.88 650.78
  Q 364.36 657.26 360.60 659.62
  Q 356.43 662.23 351.80 663.31
  A 1.98 1.98 0.0 0 1 349.55 662.21
  L 346.14 654.79
  Q 345.75 642.02 334.74 639.82
  C 324.04 637.68 316.64 647.22 319.10 657.27
  L 308.22 663.96
  C 300.74 659.03 295.30 653.27 288.81 647.35
  A 0.55 0.55 0.0 0 1 289.22 646.40
  Q 292.82 646.65 296.53 645.76
  C 308.96 642.76 317.32 633.20 318.00 620.52
  Q 318.36 613.89 317.19 607.71
  A 1.02 1.02 0.0 0 1 318.18 606.50
  Q 339.44 606.29 345.03 606.26
  C 348.65 606.23 351.88 606.99 351.82 611.06
  Q 351.58 630.09 351.72 649.01
  A 0.42 0.42 0.0 0 0 352.16 649.43
  Q 360.84 649.00 367.88 650.78
  Z"
/>
<path fill="#ffffff" d="
  M 346.14 654.79
  Q 344.70 664.91 335.97 667.28
  C 327.98 669.45 321.34 664.92 319.10 657.27
  C 316.64 647.22 324.04 637.68 334.74 639.82
  Q 345.75 642.02 346.14 654.79
  Z"
/>
<path fill="#623792" d="
  M 308.22 663.96
  L 319.10 657.27
  C 321.34 664.92 327.98 669.45 335.97 667.28
  Q 344.70 664.91 346.14 654.79
  L 349.55 662.21
  A 1.98 1.98 0.0 0 0 351.80 663.31
  Q 356.43 662.23 360.60 659.62
  Q 364.36 657.26 367.88 650.78
  Q 374.46 652.67 378.32 656.68
  C 387.75 666.46 389.32 680.18 381.44 691.82
  C 375.53 700.56 363.64 705.69 353.05 705.66
  A 1.22 1.22 0.0 0 0 351.83 706.85
  Q 351.32 726.13 351.77 744.02
  Q 351.86 747.48 348.54 747.40
  Q 340.99 747.22 336.71 747.41
  A 0.62 0.62 0.0 0 1 336.06 746.72
  Q 338.15 728.62 341.79 710.54
  C 343.14 703.89 345.87 700.85 351.30 695.70
  Q 361.19 686.31 365.77 680.77
  C 369.89 675.79 373.96 669.09 374.57 662.68
  A 0.67 0.67 0.0 0 0 373.72 661.97
  C 367.11 663.77 360.87 665.66 354.14 668.61
  C 344.95 672.63 333.48 674.40 324.51 672.01
  Q 316.94 669.99 308.22 663.96
  Z"
/>
<path fill="#1497cb" d="
  M 403.86 651.70
  Q 415.38 662.61 423.32 677.15
  C 427.59 684.96 430.11 693.43 432.06 702.23
  C 434.91 715.04 438.60 726.95 442.57 738.04
  C 444.77 744.18 446.32 750.81 447.56 756.72
  A 0.89 0.88 -6.1 0 1 446.70 757.78
  L 355.79 758.74
  A 0.60 0.60 0.0 0 1 355.19 758.14
  L 355.19 709.26
  A 0.57 0.57 0.0 0 1 355.80 708.69
  C 361.41 709.09 367.75 708.81 373.48 706.66
  Q 386.00 701.95 392.65 691.14
  C 398.75 681.21 398.97 670.37 392.31 660.76
  L 403.86 651.70
  Z"
/>
<path fill="#623792" d="
  M 293.01 667.95
  Q 297.41 676.17 302.21 684.07
  C 303.62 686.40 305.88 691.32 306.15 694.40
  C 306.84 702.40 302.14 709.09 297.01 715.02
  C 292.16 720.64 290.51 723.18 285.83 727.94
  Q 282.64 731.17 280.97 734.46
  A 1.98 1.95 54.2 0 0 280.78 735.69
  L 281.32 738.84
  A 0.20 0.19 21.5 0 1 280.97 738.99
  Q 280.12 737.87 280.16 737.20
  Q 280.47 732.43 277.45 729.68
  A 0.85 0.85 0.0 0 0 276.03 730.40
  Q 276.58 735.48 279.22 740.67
  A 1.41 1.41 0.0 0 0 280.65 741.43
  Q 285.22 740.85 289.59 739.39
  C 296.79 736.98 301.36 736.01 308.56 733.90
  C 313.46 732.46 318.85 732.00 321.60 737.03
  Q 323.91 741.26 323.14 747.05
  A 0.85 0.84 2.0 0 1 322.35 747.78
  C 320.59 747.90 318.82 747.57 316.76 747.58
  Q 284.28 747.79 256.28 747.41
  C 240.62 747.19 229.04 729.39 229.62 715.09
  Q 229.78 711.20 229.77 709.91
  Q 229.65 690.99 229.79 672.02
  C 239.41 675.81 249.19 679.81 259.31 681.93
  C 274.04 685.01 283.39 677.98 293.01 667.95
  Z
  M 263.0065 708.6538
  A 1.78 1.78 0.0 0 0 261.6726 706.5190
  L 254.3843 704.8364
  A 1.78 1.78 0.0 0 0 252.2495 706.1703
  L 252.2135 706.3262
  A 1.78 1.78 0.0 0 0 253.5474 708.4610
  L 260.8357 710.1436
  A 1.78 1.78 0.0 0 0 262.9705 708.8097
  L 263.0065 708.6538
  Z
  M 246.54 707.30
  L 246.13 705.71
  A 0.48 0.48 0.0 0 0 245.54 705.37
  L 241.37 706.46
  A 4.15 1.21 -14.7 0 0 237.66 708.69
  L 237.71 708.86
  A 4.15 1.21 -14.7 0 0 242.03 708.98
  L 246.20 707.88
  A 0.48 0.48 0.0 0 0 246.54 707.30
  Z
  M 268.1531 713.3044
  A 6.49 2.13 -117.9 0 0 269.3076 720.0367
  A 6.49 2.13 -117.9 0 0 274.2269 724.7756
  A 6.49 2.13 -117.9 0 0 273.0724 718.0433
  A 6.49 2.13 -117.9 0 0 268.1531 713.3044
  Z"
/>
<ellipse fill="#7949b0" cx="0.00" cy="0.00" transform="translate(174.11,691.56) rotate(-179.6)" rx="0.92" ry="0.66"/>
<rect fill="#7949b0" x="-0.83" y="-3.75" transform="translate(178.74,701.38) rotate(-19.8)" width="1.66" height="7.50" rx="0.80"/>
<path fill="#1497cb" d="
  M 459.08 758.28
  A 0.36 0.36 0.0 0 1 458.73 757.92
  Q 458.21 733.46 458.36 710.80
  C 458.40 703.79 466.46 700.36 472.60 701.18
  Q 484.40 702.77 498.63 705.64
  A 1.07 1.07 0.0 0 1 499.48 706.69
  Q 499.50 713.21 499.49 719.94
  Q 499.48 727.43 497.31 732.90
  Q 494.00 741.23 488.91 746.35
  Q 476.47 758.86 459.08 758.28
  Z"
/>
<rect fill="#ffffff" x="-5.52" y="-1.86" transform="translate(257.61,707.49) rotate(13.0)" width="11.04" height="3.72" rx="1.78"/>
<path fill="#ffffff" d="
  M 246.54 707.30
  A 0.48 0.48 0.0 0 1 246.20 707.88
  L 242.03 708.98
  A 4.15 1.21 -14.7 0 1 237.71 708.86
  L 237.66 708.69
  A 4.15 1.21 -14.7 0 1 241.37 706.46
  L 245.54 705.37
  A 0.48 0.48 0.0 0 1 246.13 705.71
  L 246.54 707.30
  Z"
/>
<path fill="#7949b0" d="
  M 183.23 710.60
  A 0.14 0.14 0.0 0 1 183.27 710.41
  L 183.30 710.39
  A 3.17 2.30 56.9 0 1 186.96 711.78
  L 187.78 713.04
  A 3.17 2.30 56.9 0 1 187.58 716.95
  L 187.55 716.97
  A 0.14 0.14 0.0 0 1 187.36 716.93
  L 183.23 710.60
  Z"
/>
<ellipse fill="#ffffff" cx="0.00" cy="0.00" transform="translate(271.19,719.04) rotate(-117.9)" rx="6.49" ry="2.13"/>
<path fill="#7949b0" d="
  M 348.05 757.35
  A 0.12 0.12 0.0 0 1 347.89 757.32
  L 347.87 757.30
  A 2.92 1.93 -35.7 0 1 349.11 754.03
  L 350.67 752.91
  A 2.92 1.93 -35.7 0 1 354.17 752.77
  L 354.19 752.79
  A 0.12 0.12 0.0 0 1 354.16 752.96
  L 348.05 757.35
  Z"
/>
<path fill="#623792" d="
  M 334.24 805.54
  L 334.18 805.46
  A 3.80 3.80 0.0 0 1 334.12 800.35
  Q 338.55 795.35 343.16 789.13
  Q 344.67 787.08 347.45 788.54
  C 352.03 790.95 351.74 795.66 347.81 798.82
  Q 343.46 802.32 339.29 805.84
  A 3.66 3.66 0.0 0 1 334.24 805.54
  Z"
/>
<path fill="#1497cb" d="
  M 427.53 833.39
  Q 427.83 833.39 428.16 832.64
  Q 434.96 817.20 444.32 796.04
  C 446.98 790.00 456.96 792.32 455.82 798.72
  Q 455.53 800.36 454.69 802.17
  Q 441.23 831.40 434.87 845.55
  C 433.28 849.07 431.41 850.76 427.53 850.76
  C 423.65 850.76 421.77 849.07 420.19 845.55
  Q 413.82 831.40 400.36 802.17
  Q 399.52 800.36 399.23 798.72
  C 398.09 792.32 408.07 790.00 410.73 796.04
  Q 420.09 817.20 426.90 832.64
  Q 427.23 833.39 427.53 833.39
  Z"
/>
<path fill="#623792" d="
  M 211.15 836.89
  C 212.40 835.06 215.37 835.42 217.20 836.55
  C 223.64 840.54 234.63 843.43 241.27 838.34
  Q 244.46 835.90 241.83 831.95
  Q 241.01 830.70 237.36 829.39
  C 227.44 825.83 208.89 824.44 211.53 808.12
  C 213.20 797.80 222.11 793.29 231.85 792.71
  Q 241.10 792.16 249.39 796.32
  C 252.98 798.12 256.58 801.83 254.25 806.02
  C 252.56 809.05 249.21 808.37 246.39 806.56
  Q 241.09 803.15 234.79 802.68
  C 230.37 802.36 224.73 803.66 223.75 808.47
  C 222.91 812.59 226.26 814.30 229.78 815.60
  C 238.03 818.64 254.00 819.40 255.19 831.88
  Q 255.95 839.78 249.78 845.43
  C 244.42 850.34 236.57 851.25 229.03 850.79
  C 223.37 850.44 204.29 846.94 211.15 836.89
  Z"
/>
<path fill="#623792" d="
  M 57.19 799.06
  A 5.64 5.64 0.0 0 1 62.83 793.42
  L 82.09 793.42
  A 26.16 25.77 -0.0 0 1 108.25 819.19
  L 108.25 824.35
  A 26.16 25.77 0.0 0 1 82.09 850.12
  L 62.83 850.12
  A 5.64 5.64 0.0 0 1 57.19 844.48
  L 57.19 799.06
  Z
  M 69.99 804.16
  L 69.93 839.46
  A 0.28 0.28 0.0 0 0 70.21 839.74
  L 80.47 839.76
  A 15.10 14.90 -89.9 0 0 95.40 824.68
  L 95.40 819.02
  A 15.10 14.90 -89.9 0 0 80.53 803.90
  L 70.27 803.88
  A 0.28 0.28 0.0 0 0 69.99 804.16
  Z"
/>
<path fill="#623792" d="
  M 302.70 811.08
  A 0.46 0.46 0.0 0 0 303.21 810.63
  C 303.63 797.50 313.09 793.63 324.40 793.17
  A 3.80 3.80 0.0 0 1 328.36 796.97
  L 328.36 798.27
  A 4.11 4.10 85.2 0 1 324.95 802.32
  L 318.63 803.40
  A 3.44 3.43 -89.0 0 0 315.86 806.08
  L 315.05 809.93
  A 0.76 0.76 0.0 0 0 315.79 810.84
  L 322.14 810.84
  A 3.96 3.96 0.0 0 1 326.10 814.80
  L 326.10 816.39
  A 3.74 3.74 0.0 0 1 322.36 820.13
  L 315.86 820.13
  A 0.59 0.59 0.0 0 0 315.27 820.73
  Q 315.50 841.81 315.39 844.25
  Q 315.27 846.68 314.18 848.93
  A 2.09 2.06 -1.6 0 1 313.30 849.85
  Q 308.50 852.44 304.62 849.16
  A 3.02 2.97 10.8 0 1 303.72 847.86
  Q 303.10 846.13 303.14 841.50
  Q 303.29 823.61 303.28 820.34
  A 0.61 0.61 0.0 0 0 302.72 819.73
  C 300.04 819.48 296.37 820.61 295.39 816.85
  C 293.78 810.59 298.25 810.60 302.70 811.08
  Z"
/>
<path fill="#ffffff" d="
  M 69.99 804.16
  A 0.28 0.28 0.0 0 1 70.27 803.88
  L 80.53 803.90
  A 15.10 14.90 -89.9 0 1 95.40 819.02
  L 95.40 824.68
  A 15.10 14.90 -89.9 0 1 80.47 839.76
  L 70.21 839.74
  A 0.28 0.28 0.0 0 1 69.93 839.46
  L 69.99 804.16
  Z"
/>
<path fill="#1497cb" d="
  M 475.45 845.81
  A 0.36 0.35 -37.9 0 0 474.79 845.73
  Q 472.22 850.56 466.53 851.08
  C 458.06 851.87 449.60 845.62 450.75 836.51
  C 451.39 831.41 454.42 829.14 459.61 827.93
  Q 466.86 826.24 473.67 826.74
  A 1.60 1.60 0.0 0 0 475.36 824.88
  L 474.89 822.18
  A 3.14 3.13 88.7 0 0 472.19 819.59
  Q 467.55 819.00 465.19 819.71
  Q 458.32 821.78 457.26 822.05
  Q 453.99 822.87 452.62 820.48
  C 449.94 815.77 454.56 812.73 458.53 811.53
  C 467.69 808.78 481.51 807.42 486.01 818.46
  Q 486.91 820.66 487.04 825.60
  Q 487.42 838.95 487.19 845.47
  C 487.06 849.08 483.91 851.40 480.32 850.99
  Q 476.61 850.57 475.45 845.81
  Z
  M 474.51 832.46
  C 471.52 832.61 465.63 832.81 463.43 835.14
  A 1.87 1.80 72.1 0 0 462.95 836.12
  Q 462.19 841.41 467.33 842.13
  C 473.09 842.94 474.77 837.83 475.24 833.23
  A 0.70 0.69 1.7 0 0 474.51 832.46
  Z"
/>
<path fill="#1497cb" d="
  M 518.07 818.28
  Q 516.59 819.61 515.80 819.80
  C 510.87 820.99 504.20 820.62 503.73 827.94
  Q 503.35 833.93 503.36 845.24
  Q 503.37 849.66 499.22 850.94
  C 496.15 851.88 492.03 850.11 491.28 847.00
  Q 490.91 845.45 490.96 841.50
  Q 490.98 839.80 491.06 816.57
  C 491.10 807.50 503.18 808.14 502.82 815.33
  A 0.26 0.25 -25.5 0 0 503.28 815.49
  Q 507.71 809.42 515.63 809.93
  C 519.11 810.15 520.44 812.92 519.28 816.16
  A 0.25 0.25 0.0 0 0 519.68 816.43
  C 520.16 815.99 520.74 814.79 521.58 813.96
  Q 525.07 810.49 531.23 809.72
  Q 539.22 808.71 544.97 814.53
  A 0.42 0.41 -58.5 0 0 545.66 814.36
  Q 546.84 810.58 550.20 810.03
  C 555.24 809.22 557.88 812.31 557.86 817.27
  Q 557.84 820.94 557.66 840.01
  C 557.58 849.03 558.06 857.38 550.04 862.38
  C 542.57 867.04 530.48 865.96 522.07 862.88
  A 5.73 5.72 15.2 0 1 518.40 856.47
  L 518.43 856.30
  A 3.98 3.98 0.0 0 1 523.66 853.25
  C 533.31 856.62 546.08 858.92 545.73 844.53
  A 0.37 0.37 0.0 0 0 545.10 844.27
  Q 537.21 851.84 526.44 847.52
  C 514.80 842.84 513.11 828.56 518.43 818.56
  A 0.23 0.23 0.0 0 0 518.07 818.28
  Z
  M 536.9012 819.1116
  A 10.38 9.06 -89.0 0 0 527.6614 829.3319
  A 10.38 9.06 -89.0 0 0 536.5388 839.8684
  A 10.38 9.06 -89.0 0 0 545.7786 829.6481
  A 10.38 9.06 -89.0 0 0 536.9012 819.1116
  Z"
/>
<path fill="#1497cb" d="
  M 599.84 839.43
  A 3.93 3.80 30.9 0 1 603.89 838.49
  Q 606.69 839.46 610.06 840.67
  C 612.24 841.46 617.89 842.02 620.31 840.55
  A 2.25 2.25 0.0 0 0 620.87 837.19
  Q 619.96 836.10 618.12 835.63
  Q 614.58 834.73 609.84 833.28
  C 602.66 831.09 597.31 826.17 600.44 818.46
  C 604.84 807.63 620.01 808.27 628.96 812.40
  A 5.49 5.48 -69.3 0 1 631.92 818.95
  L 631.87 819.13
  A 4.15 4.15 0.0 0 1 626.25 821.75
  C 621.69 819.76 611.94 815.79 611.14 822.28
  A 1.38 1.35 -66.9 0 0 611.61 823.49
  Q 613.39 824.97 615.31 825.43
  C 619.93 826.53 624.11 826.87 628.45 829.44
  C 632.95 832.10 634.51 837.21 632.82 841.84
  C 628.88 852.65 612.79 852.14 603.88 848.91
  C 601.56 848.07 598.97 846.11 598.90 843.25
  Q 598.83 840.48 599.84 839.43
  Z"
/>
<path fill="#623792" d="
  M 124.62 815.68
  C 125.13 815.36 125.84 813.63 126.88 812.88
  C 129.89 810.70 139.17 807.06 140.49 813.18
  A 0.41 0.41 0.0 0 0 141.07 813.46
  Q 150.12 809.21 159.11 809.76
  C 168.74 810.35 173.74 815.30 174.05 825.00
  Q 174.13 827.59 174.25 840.84
  C 174.28 844.37 174.82 849.73 170.28 850.73
  C 167.45 851.35 164.09 850.40 163.30 847.47
  Q 163.00 846.34 162.82 846.00
  A 0.43 0.43 0.0 0 0 162.07 845.99
  C 157.85 853.13 148.25 852.24 142.49 847.48
  Q 137.94 843.72 138.31 837.01
  C 138.69 829.99 144.43 828.35 150.50 827.48
  Q 156.20 826.66 161.87 826.65
  A 0.63 0.62 -86.9 0 0 162.49 826.09
  C 163.82 814.34 148.74 820.85 144.25 821.80
  Q 140.35 822.63 139.84 818.98
  A 0.46 0.46 0.0 0 0 139.17 818.63
  C 138.69 818.89 138.24 819.77 137.49 819.91
  C 131.02 821.09 124.26 821.05 124.33 829.96
  Q 124.37 835.81 124.33 841.70
  C 124.30 847.43 123.68 851.65 116.97 850.80
  C 112.75 850.27 112.04 847.18 112.06 843.20
  Q 112.16 826.61 112.40 815.49
  C 112.47 812.02 114.79 809.92 118.36 809.82
  Q 123.52 809.69 124.07 815.41
  A 0.36 0.36 0.0 0 0 124.62 815.68
  Z
  M 161.77 832.55
  Q 159.35 832.30 154.90 832.88
  C 147.74 833.81 149.14 842.52 155.51 842.26
  C 160.16 842.07 162.58 837.49 162.39 833.22
  A 0.71 0.70 -88.1 0 0 161.77 832.55
  Z"
/>
<path fill="#623792" d="
  M 297.6742 831.7490
  A 18.66 18.66 0.0 0 1 279.4091 850.7957
  L 275.6099 850.8753
  A 18.66 18.66 0.0 0 1 256.5633 832.6102
  L 256.4858 828.9110
  A 18.66 18.66 0.0 0 1 274.7509 809.8643
  L 278.5501 809.7847
  A 18.66 18.66 0.0 0 1 297.5967 828.0498
  L 297.6742 831.7490
  Z
  M 276.7755 818.5730
  A 11.66 8.75 -91.3 0 0 268.2923 830.4285
  A 11.66 8.75 -91.3 0 0 277.3045 841.8870
  A 11.66 8.75 -91.3 0 0 285.7877 830.0315
  A 11.66 8.75 -91.3 0 0 276.7755 818.5730
  Z"
/>
<path fill="#623792" d="
  M 370.72 846.06
  A 0.40 0.39 -32.4 0 0 370.00 845.90
  Q 365.94 851.99 358.36 851.17
  C 350.43 850.32 344.69 844.37 345.87 836.10
  C 347.20 826.70 360.88 826.44 368.25 826.87
  A 1.83 1.83 0.0 0 0 370.16 824.73
  L 369.75 822.31
  A 3.52 3.51 88.4 0 0 366.71 819.42
  C 360.41 818.66 356.67 820.83 351.98 822.02
  A 4.15 4.14 -10.0 0 1 346.83 818.42
  L 346.81 818.22
  A 5.56 5.55 78.6 0 1 350.69 812.36
  Q 359.40 809.66 364.74 809.73
  C 374.01 809.84 380.55 813.66 381.48 823.53
  Q 381.78 826.76 381.66 844.48
  Q 381.62 849.60 377.70 850.70
  C 373.85 851.78 371.32 850.24 370.72 846.06
  Z
  M 369.34 832.66
  Q 366.96 832.38 362.57 832.89
  C 355.51 833.72 356.78 842.32 363.05 842.14
  C 367.64 842.01 370.08 837.53 369.94 833.32
  A 0.70 0.69 -87.4 0 0 369.34 832.66
  Z"
/>
<path fill="#1497cb" d="
  M 584.86 845.58
  C 584.41 845.90 583.44 847.98 582.41 848.83
  C 576.15 854.01 565.04 850.09 561.97 842.78
  C 559.10 835.91 562.17 829.67 569.81 828.06
  Q 577.77 826.38 583.47 826.82
  A 1.74 1.73 87.4 0 0 585.31 824.80
  L 584.93 822.59
  A 3.58 3.57 0.5 0 0 582.06 819.68
  C 576.46 818.64 573.03 819.97 567.52 821.76
  C 565.03 822.56 562.76 821.53 562.17 818.87
  Q 561.39 815.35 564.74 813.41
  C 572.52 808.89 589.63 807.01 594.88 816.45
  Q 596.51 819.38 596.72 824.03
  Q 597.42 839.22 596.71 846.66
  Q 596.32 850.68 592.01 851.01
  C 588.67 851.27 586.36 849.85 585.79 846.67
  Q 585.69 846.12 585.56 845.78
  A 0.46 0.46 0.0 0 0 584.86 845.58
  Z
  M 584.56 832.61
  Q 582.15 832.36 577.72 832.94
  C 570.60 833.86 571.98 842.53 578.32 842.27
  C 582.95 842.09 585.36 837.53 585.18 833.28
  A 0.71 0.70 -88.1 0 0 584.56 832.61
  Z"
/>
<rect fill="#623792" x="-6.19" y="-20.41" transform="translate(336.37,830.40) rotate(-0.6)" width="12.38" height="40.82" rx="5.46"/>
<ellipse fill="#ffffff" cx="0.00" cy="0.00" transform="translate(277.04,830.23) rotate(-91.3)" rx="11.66" ry="8.75"/>
<ellipse fill="#ffffff" cx="0.00" cy="0.00" transform="translate(536.72,829.49) rotate(-89.0)" rx="10.38" ry="9.06"/>
<path fill="#ffffff" d="
  M 161.77 832.55
  A 0.71 0.70 -88.1 0 1 162.39 833.22
  C 162.58 837.49 160.16 842.07 155.51 842.26
  C 149.14 842.52 147.74 833.81 154.90 832.88
  Q 159.35 832.30 161.77 832.55
  Z"
/>
<path fill="#ffffff" d="
  M 369.34 832.66
  A 0.70 0.69 -87.4 0 1 369.94 833.32
  C 370.08 837.53 367.64 842.01 363.05 842.14
  C 356.78 842.32 355.51 833.72 362.57 832.89
  Q 366.96 832.38 369.34 832.66
  Z"
/>
<path fill="#ffffff" d="
  M 474.51 832.46
  A 0.70 0.69 1.7 0 1 475.24 833.23
  C 474.77 837.83 473.09 842.94 467.33 842.13
  Q 462.19 841.41 462.95 836.12
  A 1.87 1.80 72.1 0 1 463.43 835.14
  C 465.63 832.81 471.52 832.61 474.51 832.46
  Z"
/>
<path fill="#ffffff" d="
  M 584.56 832.61
  A 0.71 0.70 -88.1 0 1 585.18 833.28
  C 585.36 837.53 582.95 842.09 578.32 842.27
  C 571.98 842.53 570.60 833.86 577.72 832.94
  Q 582.15 832.36 584.56 832.61
  Z"
/>
<ellipse fill="#623792" cx="0.00" cy="0.00" transform="translate(184.37,843.71) rotate(-114.2)" rx="7.17" ry="6.87"/>
<path fill="#434443" d="
  M 356.88 897.46
  Q 350.14 897.46 350.08 897.46
  A 0.80 0.78 9.4 0 0 349.38 897.95
  L 347.16 903.35
  A 2.28 2.27 23.8 0 1 344.08 904.54
  L 344.02 904.50
  A 2.16 2.15 24.4 0 1 342.93 901.63
  Q 349.08 888.39 353.99 877.41
  Q 355.09 874.94 356.89 874.94
  Q 358.69 874.94 359.79 877.41
  Q 364.69 888.40 370.82 901.64
  A 2.16 2.15 -24.3 0 1 369.73 904.52
  L 369.67 904.55
  A 2.28 2.27 -23.7 0 1 366.59 903.36
  L 364.37 897.96
  A 0.80 0.78 -9.3 0 0 363.67 897.47
  Q 363.61 897.46 356.88 897.46
  Z
  M 351.45 893.28
  A 0.33 0.33 0.0 0 0 351.74 893.74
  L 361.81 893.86
  A 0.33 0.33 0.0 0 0 362.12 893.41
  L 357.23 881.44
  A 0.33 0.33 0.0 0 0 356.62 881.44
  L 351.45 893.28
  Z"
/>
<path fill="#434443" d="
  M 475.09 875.05
  Q 476.89 875.04 478.01 877.51
  Q 482.98 888.51 489.20 901.76
  A 2.17 2.16 -24.6 0 1 488.12 904.65
  L 488.06 904.69
  A 2.29 2.28 -24.0 0 1 484.96 903.51
  L 482.71 898.10
  A 0.80 0.79 -9.6 0 0 482.01 897.61
  Q 481.95 897.61 475.19 897.64
  Q 468.43 897.67 468.37 897.67
  A 0.80 0.79 9.1 0 0 467.67 898.17
  L 465.47 903.60
  A 2.29 2.28 23.5 0 1 462.38 904.81
  L 462.32 904.77
  A 2.17 2.16 24.1 0 1 461.22 901.89
  Q 467.32 888.58 472.19 877.54
  Q 473.28 875.05 475.09 875.05
  Z
  M 470.02 893.68
  L 479.95 893.58
  A 0.35 0.35 0.0 0 0 480.27 893.09
  L 475.38 881.26
  A 0.31 0.30 -44.6 0 0 474.82 881.26
  L 469.69 893.19
  A 0.35 0.35 0.0 0 0 470.02 893.68
  Z"
/>
<path fill="#434443" d="
  M 205.03 893.23
  A 0.56 0.55 -0.0 0 0 204.47 893.78
  L 204.47 902.91
  A 1.81 1.80 90.0 0 1 202.67 904.72
  L 201.60 904.72
  A 1.69 1.69 0.0 0 1 199.91 903.03
  L 199.91 877.42
  A 1.90 1.90 0.0 0 1 201.76 875.52
  C 210.56 875.28 220.62 873.28 222.09 882.50
  Q 222.81 887.00 220.54 889.94
  C 217.40 894.02 211.31 893.22 205.03 893.23
  Z
  M 204.47 879.70
  L 204.41 888.90
  A 0.59 0.59 0.0 0 0 204.99 889.50
  L 212.37 889.55
  A 5.05 4.73 0.4 0 0 217.46 884.86
  L 217.46 883.94
  A 5.05 4.73 0.4 0 0 212.45 879.17
  L 205.07 879.12
  A 0.59 0.59 0.0 0 0 204.47 879.70
  Z"
/>
<path fill="#434443" d="
  M 258.36 888.57
  L 258.36 890.69
  A 0.83 0.83 0.0 0 1 257.53 891.52
  L 245.14 891.52
  A 0.83 0.83 0.0 0 0 244.31 892.35
  L 244.31 899.95
  A 0.83 0.83 0.0 0 0 245.14 900.78
  L 258.46 900.78
  A 0.83 0.83 0.0 0 1 259.29 901.61
  L 259.29 903.81
  A 0.83 0.83 0.0 0 1 258.46 904.64
  L 240.53 904.64
  A 0.83 0.83 0.0 0 1 239.70 903.81
  L 239.70 876.24
  A 0.83 0.83 0.0 0 1 240.53 875.41
  L 258.55 875.41
  A 0.83 0.83 0.0 0 1 259.38 876.24
  L 259.38 878.22
  A 0.83 0.83 0.0 0 1 258.55 879.05
  L 244.96 879.05
  A 0.83 0.83 0.0 0 0 244.13 879.88
  L 244.13 886.91
  A 0.83 0.83 0.0 0 0 244.96 887.74
  L 257.53 887.74
  A 0.83 0.83 0.0 0 1 258.36 888.57
  Z"
/>
<rect fill="#434443" x="-2.48" y="-14.88" transform="translate(323.10,890.07) rotate(-0.7)" width="4.96" height="29.76" rx="1.82"/>
<path fill="#434443" d="
  M 393.46 875.32
  Q 399.09 875.22 404.75 875.29
  A 1.79 1.79 0.0 0 1 406.52 877.18
  L 406.52 877.36
  A 1.95 1.95 0.0 0 1 404.60 879.26
  L 396.38 879.37
  A 0.64 0.64 0.0 0 0 395.75 880.01
  Q 395.75 888.51 395.95 902.66
  C 395.97 904.23 395.06 904.81 393.60 904.81
  C 392.15 904.82 391.23 904.25 391.24 902.68
  Q 391.30 888.53 391.22 880.03
  A 0.64 0.64 0.0 0 0 390.58 879.40
  L 382.36 879.37
  A 1.95 1.95 0.0 0 1 380.42 877.48
  L 380.42 877.30
  A 1.79 1.79 0.0 0 1 382.17 875.40
  Q 387.83 875.28 393.46 875.32
  Z"
/>
<path fill="#434443" d="
  M 276.84 877.37
  A 2.04 2.04 0.0 0 1 278.89 875.34
  L 288.95 875.41
  A 13.74 13.28 0.4 0 1 302.60 888.79
  L 302.58 891.45
  A 13.74 13.28 0.4 0 1 288.75 904.63
  L 278.69 904.56
  A 2.04 2.04 0.0 0 1 276.66 902.51
  L 276.84 877.37
  Z
  M 281.37 879.92
  L 281.51 900.16
  A 0.62 0.62 0.0 0 0 282.14 900.77
  L 288.30 900.73
  A 9.28 9.02 -0.4 0 0 297.51 891.64
  L 297.49 888.20
  A 9.28 9.02 -0.4 0 0 288.15 879.25
  L 281.99 879.29
  A 0.62 0.62 0.0 0 0 281.37 879.92
  Z"
/>
<path fill="#434443" d="
  M 438.44 892.46
  Q 442.07 896.01 445.23 902.52
  A 1.63 1.63 0.0 0 1 443.76 904.86
  L 443.00 904.86
  A 2.81 2.81 0.0 0 1 440.60 903.51
  Q 437.57 898.52 435.44 895.59
  C 433.10 892.37 430.99 892.84 427.31 892.89
  A 0.55 0.54 -90.0 0 0 426.77 893.44
  L 426.77 903.12
  A 1.74 1.74 0.0 0 1 425.03 904.86
  L 423.90 904.86
  A 1.88 1.88 0.0 0 1 422.02 902.98
  L 422.02 876.82
  A 1.37 1.37 0.0 0 1 423.38 875.45
  Q 430.09 875.38 435.22 875.48
  Q 444.50 875.65 444.66 883.58
  C 444.74 887.65 442.81 891.07 438.63 891.85
  A 0.36 0.36 0.0 0 0 438.44 892.46
  Z
  M 426.47 879.45
  L 426.61 888.75
  A 0.23 0.23 0.0 0 0 426.85 888.97
  L 434.90 888.85
  A 5.26 4.58 -0.9 0 0 440.08 884.18
  L 440.07 883.58
  A 5.26 4.58 -0.9 0 0 434.74 879.09
  L 426.69 879.21
  A 0.23 0.23 0.0 0 0 426.47 879.45
  Z"
/>
<path fill="#ffffff" d="
  M 204.47 879.70
  A 0.59 0.59 0.0 0 1 205.07 879.12
  L 212.45 879.17
  A 5.05 4.73 0.4 0 1 217.46 883.94
  L 217.46 884.86
  A 5.05 4.73 0.4 0 1 212.37 889.55
  L 204.99 889.50
  A 0.59 0.59 0.0 0 1 204.41 888.90
  L 204.47 879.70
  Z"
/>
<path fill="#ffffff" d="
  M 426.47 879.45
  A 0.23 0.23 0.0 0 1 426.69 879.21
  L 434.74 879.09
  A 5.26 4.58 -0.9 0 1 440.07 883.58
  L 440.08 884.18
  A 5.26 4.58 -0.9 0 1 434.90 888.85
  L 426.85 888.97
  A 0.23 0.23 0.0 0 1 426.61 888.75
  L 426.47 879.45
  Z"
/>
<path fill="#ffffff" d="
  M 281.37 879.92
  A 0.62 0.62 0.0 0 1 281.99 879.29
  L 288.15 879.25
  A 9.28 9.02 -0.4 0 1 297.49 888.20
  L 297.51 891.64
  A 9.28 9.02 -0.4 0 1 288.30 900.73
  L 282.14 900.77
  A 0.62 0.62 0.0 0 1 281.51 900.16
  L 281.37 879.92
  Z"
/>
<path fill="#ffffff" d="
  M 469.69 893.19
  L 474.82 881.26
  A 0.31 0.30 -44.6 0 1 475.38 881.26
  L 480.27 893.09
  A 0.35 0.35 0.0 0 1 479.95 893.58
  L 470.02 893.68
  A 0.35 0.35 0.0 0 1 469.69 893.19
  Z"
/>
<path fill="#ffffff" d="
  M 351.45 893.28
  L 356.62 881.44
  A 0.33 0.33 0.0 0 1 357.23 881.44
  L 362.12 893.41
  A 0.33 0.33 0.0 0 1 361.81 893.86
  L 351.74 893.74
  A 0.33 0.33 0.0 0 1 351.45 893.28
  Z"
/>
</svg>
